<svg width="500" height="500" viewBox="0 0 500 500" fill="none" xmlns="http://www.w3.org/2000/svg">
<path d="M500 382.4H0V382.65H500V382.4Z" fill="#EBEBEB"/>
<path d="M321.52 396.34H288.4V396.59H321.52V396.34Z" fill="#EBEBEB"/>
<path d="M415.77 393.63H407.08V393.88H415.77V393.63Z" fill="#EBEBEB"/>
<path d="M396.59 389.21H327.67V389.46H396.59V389.21Z" fill="#EBEBEB"/>
<path d="M225.14 395.11H194.84V395.36H225.14V395.11Z" fill="#EBEBEB"/>
<path d="M185.94 395.11H166.72V395.36H185.94V395.11Z" fill="#EBEBEB"/>
<path d="M99.3 390.89H52.46V391.14H99.3V390.89Z" fill="#EBEBEB"/>
<path d="M237 337.8H43.91C42.3973 337.797 40.9475 337.195 39.8788 336.124C38.8102 335.054 38.21 333.603 38.21 332.09V60.66C38.2231 59.156 38.8292 57.718 39.8964 56.6582C40.9637 55.5985 42.4059 55.0026 43.91 55H237C238.514 55 239.967 55.6016 241.038 56.6724C242.108 57.7433 242.71 59.1956 242.71 60.71V332.09C242.71 333.604 242.108 335.057 241.038 336.128C239.967 337.198 238.514 337.8 237 337.8ZM43.91 55.2C42.4636 55.2026 41.0774 55.7791 40.0556 56.8027C39.0338 57.8264 38.46 59.2136 38.46 60.66V332.09C38.46 333.536 39.0338 334.924 40.0556 335.947C41.0774 336.971 42.4636 337.547 43.91 337.55H237C238.447 337.547 239.834 336.971 240.858 335.948C241.881 334.924 242.457 333.537 242.46 332.09V60.66C242.457 59.2127 241.881 57.8255 240.858 56.8021C239.834 55.7787 238.447 55.2026 237 55.2H43.91Z" fill="#EBEBEB"/>
<path d="M453.31 337.8H260.21C258.696 337.797 257.246 337.195 256.175 336.125C255.105 335.054 254.503 333.604 254.5 332.09V60.66C254.516 59.1551 255.124 57.7171 256.193 56.6576C257.262 55.5981 258.705 55.0025 260.21 55H453.31C454.812 55.0052 456.252 55.6022 457.317 56.6617C458.382 57.7212 458.987 59.1578 459 60.66V332.09C459 333.601 458.401 335.05 457.335 336.121C456.268 337.191 454.821 337.795 453.31 337.8ZM260.21 55.2C258.763 55.2026 257.375 55.7787 256.352 56.8021C255.329 57.8255 254.753 59.2127 254.75 60.66V332.09C254.753 333.537 255.329 334.924 256.352 335.948C257.375 336.971 258.763 337.547 260.21 337.55H453.31C454.757 337.547 456.145 336.971 457.168 335.948C458.191 334.924 458.767 333.537 458.77 332.09V60.66C458.767 59.2127 458.191 57.8255 457.168 56.8021C456.145 55.7787 454.757 55.2026 453.31 55.2H260.21Z" fill="#EBEBEB"/>
<path d="M57.3399 234.75L227.63 234.75L227.63 77.97L57.3399 77.97L57.3399 234.75Z" fill="#E6E6E6"/>
<path d="M53.2901 234.75L225.87 234.75L225.87 77.97L53.2901 77.97L53.2901 234.75Z" fill="#F5F5F5"/>
<path d="M218.62 226.91V85.8101L60.5501 85.8101V226.91H218.62Z" fill="#FAFAFA"/>
<path d="M199.09 226.9L145.93 85.8101H123.55L176.71 226.9H199.09Z" fill="white"/>
<path d="M170.36 226.9L117.21 85.8101H101.8L154.95 226.9H170.36Z" fill="white"/>
<path d="M122.72 226.91L122.72 85.8101H114.06L114.06 226.91H122.72Z" fill="#E6E6E6"/>
<path d="M170.91 226.9V85.8H162.25V226.9H170.91Z" fill="#E6E6E6"/>
<path d="M121.16 231.87L121.16 79.97H110.22L110.22 231.87H121.16Z" fill="#F5F5F5"/>
<path d="M169.35 231.88V79.98H158.41V231.88H169.35Z" fill="#F5F5F5"/>
<path d="M61.3201 226.91L61.3201 85.8101H60.5501L60.5501 226.91H61.3201Z" fill="#E6E6E6"/>
<path d="M400.69 382.39V273.17H74.9999V382.39H400.69Z" fill="#F0F0F0"/>
<path d="M387.45 317.33V282.09C387.45 280.588 386.232 279.37 384.73 279.37H90.98C89.4778 279.37 88.2599 280.588 88.2599 282.09V317.33C88.2599 318.832 89.4778 320.05 90.98 320.05H384.73C386.232 320.05 387.45 318.832 387.45 317.33Z" fill="#F5F5F5"/>
<path d="M387.44 372.93V327.35C387.44 325.848 386.222 324.63 384.72 324.63H90.9699C89.4677 324.63 88.2499 325.848 88.2499 327.35V372.93C88.2499 374.432 89.4677 375.65 90.9699 375.65H384.72C386.222 375.65 387.44 374.432 387.44 372.93Z" fill="#F5F5F5"/>
<path d="M327.55 278.69H148.14C148.14 280.093 148.697 281.438 149.689 282.431C150.681 283.423 152.027 283.98 153.43 283.98H322.26C323.663 283.98 325.008 283.423 326 282.431C326.993 281.438 327.55 280.093 327.55 278.69Z" fill="#F0F0F0"/>
<path d="M327.55 324H148.14C148.14 324.695 148.277 325.383 148.543 326.024C148.808 326.666 149.198 327.249 149.689 327.741C150.181 328.232 150.764 328.621 151.406 328.887C152.047 329.153 152.735 329.29 153.43 329.29H322.26C322.955 329.29 323.642 329.153 324.284 328.887C324.926 328.621 325.509 328.232 326 327.741C326.492 327.249 326.881 326.666 327.147 326.024C327.413 325.383 327.55 324.695 327.55 324Z" fill="#F0F0F0"/>
<path d="M425 382.39V273.17H400.69V382.39H425Z" fill="#E6E6E6"/>
<path d="M75 266.44V273.17H400.69V266.44H75Z" fill="#FAFAFA"/>
<path d="M372.06 256.69C372.06 259.276 373.087 261.756 374.916 263.584C376.744 265.413 379.224 266.44 381.81 266.44C384.396 266.44 386.876 265.413 388.704 263.584C390.533 261.756 391.56 259.276 391.56 256.69H372.06Z" fill="#F5F5F5"/>
<path d="M346.07 256.69C346.07 259.276 347.097 261.756 348.926 263.584C350.754 265.413 353.234 266.44 355.82 266.44C358.406 266.44 360.886 265.413 362.714 263.584C364.543 261.756 365.57 259.276 365.57 256.69H346.07Z" fill="#F5F5F5"/>
<path d="M78.5 263.15C78.5 264.96 86.61 266.44 96.61 266.44C106.61 266.44 114.72 264.96 114.72 263.15H78.5Z" fill="#F5F5F5"/>
<path d="M78.5 261.42C78.5 263.24 86.61 264.72 96.61 264.72C106.61 264.72 114.72 263.24 114.72 261.42H78.5Z" fill="#F5F5F5"/>
<path d="M400.69 266.44V273.17H425V266.44H400.69Z" fill="#E0E0E0"/>
<path d="M414.4 75.96H354.96V153.41H414.4V75.96Z" fill="#EBEBEB"/>
<path d="M411.63 75.96H352.19V153.41H411.63V75.96Z" fill="#F5F5F5"/>
<path d="M403.65 86.3701H360.18V143.01H403.65V86.3701Z" fill="white"/>
<path d="M278.92 176.45V235.89H372.84V176.45H278.92Z" fill="#EBEBEB"/>
<path d="M276.06 176.45V235.89H369.98V176.45H276.06Z" fill="#F5F5F5"/>
<path d="M286.47 184.43V227.9H359.57V184.43H286.47Z" fill="white"/>
<path d="M447.17 169.34H398.84V216.96H447.17V169.34Z" fill="#EBEBEB"/>
<path d="M444.4 169.34H396.07V216.96H444.4V169.34Z" fill="#F5F5F5"/>
<path d="M436.42 179.75H404.06V206.56H436.42V179.75Z" fill="white"/>
<path d="M339.59 112.39H291.26V160.01H339.59V112.39Z" fill="#EBEBEB"/>
<path d="M336.83 112.39H288.5V160.01H336.83V112.39Z" fill="#F5F5F5"/>
<path d="M328.85 122.8H296.49V149.61H328.85V122.8Z" fill="white"/>
<path d="M250 427.56C357.083 427.56 443.89 422.492 443.89 416.24C443.89 409.988 357.083 404.92 250 404.92C142.918 404.92 56.1101 409.988 56.1101 416.24C56.1101 422.492 142.918 427.56 250 427.56Z" fill="#F5F5F5"/>
<path d="M316.79 128.08H315.75V134.66H316.79V128.08Z" fill="#5632FA"/>
<path d="M316.79 122.73H315.79C315.785 118.898 314.259 115.224 311.548 112.515C308.837 109.806 305.162 108.283 301.33 108.28V107.28C305.424 107.293 309.347 108.925 312.244 111.819C315.14 114.713 316.774 118.636 316.79 122.73Z" fill="#5632FA"/>
<path d="M301.29 110.88H163.27C156.72 110.88 151.41 116.19 151.41 122.74V404.24C151.41 410.79 156.72 416.1 163.27 416.1H301.29C307.84 416.1 313.15 410.79 313.15 404.24V122.74C313.15 116.19 307.84 110.88 301.29 110.88Z" fill="#5632FA"/>
<path opacity="0.95" d="M307.77 404.24V122.73C307.77 118.704 304.506 115.44 300.48 115.44L162.46 115.44C158.434 115.44 155.17 118.704 155.17 122.73L155.17 404.24C155.17 408.266 158.434 411.53 162.46 411.53H300.48C304.506 411.53 307.77 408.266 307.77 404.24Z" fill="white"/>
<path d="M231.48 400.23C236.036 400.23 239.73 396.536 239.73 391.98C239.73 387.424 236.036 383.73 231.48 383.73C226.924 383.73 223.23 387.424 223.23 391.98C223.23 396.536 226.924 400.23 231.48 400.23Z" fill="#5632FA"/>
<path d="M225.17 114.61C225.17 116.416 225.887 118.148 227.165 119.426C228.442 120.703 230.174 121.42 231.98 121.42C233.786 121.42 235.518 120.703 236.795 119.426C238.072 118.148 238.79 116.416 238.79 114.61H225.17Z" fill="#5632FA"/>
<path opacity="0.7" d="M276.51 144.16H187.51C183.88 144.171 180.401 145.617 177.834 148.184C175.267 150.751 173.82 154.23 173.81 157.86V167C173.82 170.63 175.267 174.109 177.834 176.676C180.401 179.243 183.88 180.69 187.51 180.7H276.51L290.21 188.82V157.82C290.186 154.198 288.734 150.731 286.169 148.173C283.603 145.615 280.132 144.173 276.51 144.16Z" fill="#5632FA"/>
<path d="M274.03 157.25H189.94V159.53H274.03V157.25Z" fill="white"/>
<path d="M274.03 165.33H206.12V167.61H274.03V165.33Z" fill="white"/>
<path opacity="0.15" d="M187.46 205H276.46C280.09 205.011 283.569 206.457 286.136 209.024C288.703 211.591 290.149 215.07 290.16 218.7V227.83C290.149 231.46 288.703 234.939 286.136 237.506C283.569 240.073 280.09 241.519 276.46 241.53H187.46L173.76 249.65V218.65C173.781 215.028 175.233 211.56 177.799 209.004C180.365 206.447 183.838 205.008 187.46 205Z" fill="#5632FA"/>
<path opacity="0.5" d="M274.03 218.08H189.94V220.36H274.03V218.08Z" fill="#5632FA"/>
<path opacity="0.5" d="M228.94 226.17H189.94V228.45H228.94V226.17Z" fill="#5632FA"/>
<path opacity="0.5" d="M250.89 226.17H235.03V228.45H250.89V226.17Z" fill="#5632FA"/>
<path opacity="0.7" d="M276.51 265.83H187.51C183.88 265.841 180.401 267.287 177.834 269.854C175.267 272.421 173.82 275.9 173.81 279.53V288.66C173.818 292.291 175.264 295.771 177.831 298.339C180.399 300.906 183.879 302.352 187.51 302.36H276.51L290.21 310.48V279.48C290.184 275.859 288.73 272.395 286.165 269.84C283.6 267.284 280.131 265.843 276.51 265.83Z" fill="#5632FA"/>
<path d="M274.03 278.91H189.94V281.19H274.03V278.91Z" fill="white"/>
<path d="M274.03 287H206.12V289.28H274.03V287Z" fill="white"/>
<path opacity="0.15" d="M187.46 326.66H222.09C225.719 326.673 229.196 328.121 231.763 330.687C234.329 333.254 235.777 336.731 235.79 340.36V349.5C235.777 353.129 234.329 356.606 231.763 359.173C229.196 361.739 225.719 363.187 222.09 363.2H187.46L173.76 371.31V340.36C173.771 336.73 175.217 333.251 177.784 330.684C180.351 328.117 183.83 326.671 187.46 326.66Z" fill="#5632FA"/>
<path opacity="0.5" d="M194.4 344.93C194.4 345.721 194.165 346.495 193.726 347.152C193.286 347.81 192.662 348.323 191.931 348.626C191.2 348.928 190.395 349.008 189.62 348.853C188.844 348.699 188.131 348.318 187.571 347.758C187.012 347.199 186.631 346.486 186.477 345.71C186.322 344.934 186.402 344.13 186.704 343.399C187.007 342.668 187.52 342.044 188.178 341.604C188.835 341.165 189.609 340.93 190.4 340.93C191.457 340.943 192.467 341.369 193.214 342.116C193.961 342.863 194.387 343.873 194.4 344.93Z" fill="#5632FA"/>
<path opacity="0.5" d="M202.49 345.74C204.727 345.74 206.54 343.927 206.54 341.69C206.54 339.453 204.727 337.64 202.49 337.64C200.253 337.64 198.44 339.453 198.44 341.69C198.44 343.927 200.253 345.74 202.49 345.74Z" fill="#5632FA"/>
<path opacity="0.5" d="M218.67 349.78C218.67 350.571 218.435 351.345 217.996 352.002C217.556 352.66 216.932 353.173 216.201 353.476C215.47 353.778 214.665 353.858 213.89 353.703C213.114 353.549 212.401 353.168 211.841 352.608C211.282 352.049 210.901 351.336 210.747 350.56C210.592 349.784 210.672 348.98 210.974 348.249C211.277 347.518 211.79 346.894 212.448 346.454C213.105 346.015 213.879 345.78 214.67 345.78C215.731 345.78 216.748 346.201 217.498 346.952C218.248 347.702 218.67 348.719 218.67 349.78Z" fill="#5632FA"/>
<path d="M344.33 335.2C345.43 337.39 346.41 339.59 347.44 341.79C348.47 343.99 349.44 346.23 350.36 348.47C351.28 350.71 352.24 352.96 353.12 355.25C354 357.54 354.89 359.83 355.7 362.25L352.12 358.88C354.207 359.593 356.394 359.971 358.6 360C361.158 360.069 363.718 359.952 366.26 359.65C368.9 359.37 371.56 358.93 374.26 358.43C376.96 357.93 379.66 357.31 382.26 356.7L384.63 362.46C382.028 363.89 379.336 365.15 376.57 366.23C373.8 367.342 370.965 368.283 368.08 369.05C365.081 369.858 362.015 370.394 358.92 370.65C355.467 370.985 351.983 370.701 348.63 369.81L346.28 369.16L345 366.41C343.08 362.2 341 357.88 339 353.57C338 351.41 336.95 349.24 335.95 347.07C334.95 344.9 333.95 342.72 332.95 340.54L344.33 335.2Z" fill="#FFC3BD"/>
<path d="M379 358.46L382.93 354.62L389.17 361.37C389.17 361.37 386.91 365.32 381.29 363.02L379 358.46Z" fill="#FFC3BD"/>
<path d="M388.86 352.08L392.3 357.69L389.18 361.37L382.94 354.62L388.86 352.08Z" fill="#FFC3BD"/>
<path d="M326.67 326.21C334.67 323.12 340.87 327.73 350.98 340.49L339.14 352.66C339.14 352.66 311.07 332.19 326.67 326.21Z" fill="#263238"/>
<path opacity="0.2" d="M341.69 339.41C337.91 336.96 334.62 337.65 331.84 339.93C332.89 343.82 335.58 348.28 338.17 351.93C338.78 352.41 339.17 352.67 339.17 352.67L345.77 345.88C345.598 344.571 345.144 343.315 344.439 342.198C343.735 341.081 342.797 340.13 341.69 339.41Z" fill="black"/>
<path d="M387.6 411.04L397.18 409.93L396.38 390.29L386.81 391.39L387.6 411.04Z" fill="#FFC3BD"/>
<path d="M397.26 405.8L386.47 405.95C386.295 405.959 386.129 406.03 386.002 406.152C385.875 406.273 385.797 406.436 385.78 406.61L384.56 415.1C384.524 415.301 384.532 415.506 384.582 415.704C384.633 415.901 384.725 416.085 384.853 416.244C384.981 416.402 385.142 416.531 385.324 416.622C385.507 416.713 385.706 416.763 385.91 416.77C389.26 416.66 390.8 416.41 395.03 416.34C397.64 416.34 405.5 416.49 409.1 416.44C412.7 416.39 412.94 412.44 411.45 412.09C404.76 410.59 400.91 408.44 398.68 406.36C398.299 405.993 397.789 405.792 397.26 405.8Z" fill="#263238"/>
<path d="M399.55 403.3C399.701 403.243 399.863 403.223 400.024 403.242C400.184 403.261 400.337 403.319 400.47 403.41C400.576 403.462 400.666 403.54 400.735 403.636C400.803 403.732 400.846 403.843 400.86 403.96C400.98 404.96 398.86 406.76 398.57 406.96C398.541 406.981 398.506 406.993 398.47 406.993C398.434 406.993 398.399 406.981 398.37 406.96C398.336 406.942 398.309 406.914 398.291 406.881C398.273 406.847 398.266 406.808 398.27 406.77C398.34 405.69 398.59 403.77 399.44 403.34L399.55 403.3ZM398.68 406.36C399.52 405.63 400.56 404.53 400.49 403.98C400.49 403.92 400.49 403.83 400.32 403.75C400.221 403.678 400.105 403.635 399.983 403.624C399.862 403.613 399.74 403.636 399.63 403.69C399.17 403.94 398.82 404.93 398.68 406.36Z" fill="#5632FA"/>
<path d="M399.45 406C399.804 405.814 400.191 405.7 400.59 405.666C400.988 405.631 401.389 405.677 401.77 405.8C401.901 405.882 402.001 406.005 402.057 406.149C402.113 406.293 402.121 406.451 402.08 406.6C402.059 406.741 402.006 406.875 401.925 406.991C401.843 407.107 401.735 407.203 401.61 407.27C400.61 407.82 398.49 407 398.4 406.97C398.369 406.956 398.341 406.935 398.319 406.909C398.296 406.883 398.28 406.853 398.27 406.82C398.263 406.787 398.265 406.754 398.276 406.722C398.286 406.69 398.305 406.662 398.33 406.64C398.664 406.364 399.043 406.147 399.45 406ZM401.31 407L401.42 406.95C401.498 406.905 401.566 406.843 401.618 406.768C401.669 406.694 401.704 406.609 401.72 406.52C401.72 406.28 401.67 406.19 401.59 406.15C401.11 405.84 399.64 406.24 398.85 406.75C399.631 407.06 400.483 407.147 401.31 407Z" fill="#5632FA"/>
<path opacity="0.2" d="M386.81 391.4L396.38 390.29L396.79 400.42L387.17 400.46L386.81 391.4Z" fill="black"/>
<path d="M339.84 380C339.84 380 364.7 356.88 380.84 356.53C392.62 356.28 401.04 395.24 401.04 395.24L387.04 395.51C387.04 395.51 384.58 381.73 375.43 377.93C362.21 397.77 308.32 436.98 313.43 394.47C321.43 391.46 339.84 380 339.84 380Z" fill="#5632FA"/>
<path opacity="0.2" d="M339.84 380C339.84 380 364.7 356.88 380.84 356.53C392.62 356.28 401.04 395.24 401.04 395.24L387.04 395.51C387.04 395.51 384.58 381.73 375.43 377.93C362.21 397.77 308.32 436.98 313.43 394.47C321.43 391.46 339.84 380 339.84 380Z" fill="black"/>
<path d="M400.99 397.17L384.53 398.75L384.58 392.75L401.99 390.68L400.99 397.17Z" fill="#263238"/>
<path d="M307.2 395.94C307.2 395.94 296.51 375.06 295.2 341.43C294.9 333.51 302.03 326.04 310.2 325.62C317.06 325.26 324.32 325.17 330.2 325.19C336.08 325.21 340.58 329.11 341.25 334.77C342.73 347.25 342.99 366.2 350.64 388.77L307.2 395.94Z" fill="#263238"/>
<path opacity="0.2" d="M300.21 341.6C306.1 334.95 308.13 337.07 309.01 337.87C317.17 345.26 305.19 368.27 302.79 371.66C301.104 363.066 300.101 354.352 299.79 345.6C299.729 344.253 299.87 342.905 300.21 341.6Z" fill="black"/>
<path d="M318.16 305.63C317.5 311.76 315.88 321.17 311.71 325.54C314.99 328.63 320.33 331.67 327.92 332.94C331.84 331.32 332.36 327.71 330.46 325.2C323.76 324.03 323.84 322.13 326.37 317.86L318.16 305.63Z" fill="#FFC3BD"/>
<path opacity="0.2" d="M321.51 310.62L326.37 317.85C325.726 318.845 325.224 319.926 324.88 321.06C322.5 320.06 319.88 316.42 320.4 313.74C320.582 312.642 320.958 311.586 321.51 310.62Z" fill="black"/>
<path d="M335.72 294.33C339.65 298.5 347.91 298.52 344.36 293.58C340.81 288.64 332.66 291.08 335.72 294.33Z" fill="#263238"/>
<path d="M319.79 293.88C317.6 301.88 315.92 306.36 318.41 311.88C319.166 313.68 320.403 315.238 321.986 316.382C323.568 317.526 325.435 318.212 327.381 318.366C329.328 318.52 331.279 318.135 333.021 317.254C334.764 316.373 336.23 315.029 337.26 313.37C341.26 307.05 344.2 295.1 337.79 289.03C336.462 287.674 334.797 286.696 332.966 286.196C331.134 285.696 329.203 285.693 327.37 286.187C325.538 286.681 323.869 287.654 322.537 289.006C321.205 290.358 320.257 292.04 319.79 293.88Z" fill="#FFC3BD"/>
<path d="M318 301.3C319 301.12 323.94 299.62 326.35 297.3C329.06 294.69 329.08 292.16 328.35 291.01C327.62 289.86 321.9 287.65 319.23 288.16C315.01 288.97 316.05 296.44 316.11 298.46C316.142 299.059 316.334 299.639 316.666 300.139C316.999 300.638 317.459 301.039 318 301.3Z" fill="#FFC3BD"/>
<path opacity="0.7" d="M318 301.3C319 301.12 323.94 299.62 326.35 297.3C329.06 294.69 329.08 292.16 328.35 291.01C327.62 289.86 321.9 287.65 319.23 288.16C315.01 288.97 316.05 296.44 316.11 298.46C316.142 299.059 316.334 299.639 316.666 300.139C316.999 300.638 317.459 301.039 318 301.3Z" fill="#263238"/>
<path d="M313.81 301.85C314.588 303.569 315.984 304.932 317.72 305.67C320.02 306.6 321.33 304.67 320.83 302.32C320.38 300.25 318.64 297.26 316.27 297.32C313.9 297.38 312.87 299.73 313.81 301.85Z" fill="#FFC3BD"/>
<path d="M321.33 290.55C331.53 292.73 338.78 298.47 343.6 295.02C347.01 292.58 344.77 288.13 340.86 284.91C337.52 282.16 332.86 281.31 331.46 279.06C331.297 279.808 331.36 280.588 331.641 281.301C331.923 282.013 332.41 282.625 333.04 283.06C333.04 283.06 323.83 281.64 321.28 279.24C320.67 280.67 323.03 283.43 323.03 283.43C323.03 283.43 320.43 285.9 313.03 283.11C313.47 285.5 315.53 289.31 321.33 290.55Z" fill="#263238"/>
<path d="M341.59 295.83H341.19V295.31C342.071 295.42 342.964 295.237 343.731 294.791C344.499 294.345 345.099 293.66 345.44 292.84C345.823 291.744 345.851 290.556 345.521 289.443C345.191 288.33 344.519 287.35 343.6 286.64C342.717 285.953 341.753 285.375 340.73 284.92C338.36 283.73 335.67 282.38 334.37 278.45L334.86 278.29C336.09 282.01 338.57 283.29 340.97 284.45C342.039 284.927 343.046 285.531 343.97 286.25C344.98 287.024 345.719 288.098 346.078 289.319C346.438 290.539 346.4 291.842 345.97 293.04C345.619 293.902 345.009 294.633 344.224 295.133C343.44 295.632 342.519 295.876 341.59 295.83Z" fill="#263238"/>
<path d="M331.35 301.65C331.13 302.28 331.29 302.93 331.69 303.09C332.09 303.25 332.6 302.87 332.82 302.24C333.04 301.61 332.88 300.96 332.48 300.8C332.08 300.64 331.56 301 331.35 301.65Z" fill="#263238"/>
<path d="M338.89 303.93C338.68 304.56 338.83 305.2 339.24 305.36C339.65 305.52 340.15 305.15 340.36 304.51C340.57 303.87 340.43 303.24 340.02 303.07C339.61 302.9 339.11 303.29 338.89 303.93Z" fill="#263238"/>
<path d="M336.12 303.16C336.198 305.4 336.575 307.62 337.24 309.76C335.78 310.36 334.07 309.14 334.07 309.14L336.12 303.16Z" fill="#ED847E"/>
<path d="M330 310.66C328.645 309.914 327.639 308.663 327.2 307.18C327.193 307.156 327.19 307.13 327.194 307.105C327.197 307.08 327.205 307.055 327.218 307.034C327.232 307.012 327.249 306.993 327.27 306.979C327.291 306.964 327.315 306.955 327.34 306.95C327.365 306.944 327.391 306.943 327.416 306.948C327.442 306.952 327.466 306.962 327.487 306.976C327.509 306.99 327.527 307.008 327.541 307.03C327.556 307.051 327.565 307.075 327.57 307.1C327.826 307.906 328.26 308.645 328.84 309.261C329.42 309.877 330.131 310.355 330.92 310.66C330.969 310.68 331.008 310.719 331.029 310.767C331.049 310.816 331.05 310.871 331.03 310.92C331.024 310.945 331.012 310.967 330.996 310.987C330.98 311.006 330.959 311.022 330.936 311.032C330.913 311.043 330.888 311.048 330.863 311.048C330.838 311.047 330.813 311.041 330.79 311.03C330.519 310.925 330.255 310.801 330 310.66Z" fill="#263238"/>
<path d="M329.3 297.51C329.239 297.477 329.187 297.429 329.15 297.37C329.093 297.284 329.073 297.179 329.093 297.077C329.114 296.976 329.174 296.887 329.26 296.83C329.767 296.487 330.352 296.275 330.961 296.214C331.57 296.153 332.185 296.244 332.75 296.48C332.798 296.502 332.841 296.533 332.877 296.571C332.913 296.609 332.941 296.654 332.96 296.704C332.979 296.753 332.987 296.805 332.986 296.858C332.984 296.91 332.972 296.962 332.95 297.01C332.931 297.056 332.902 297.098 332.866 297.132C332.83 297.167 332.787 297.194 332.741 297.212C332.694 297.23 332.644 297.238 332.594 297.236C332.544 297.234 332.495 297.222 332.45 297.2C331.999 297.025 331.513 296.962 331.032 297.016C330.551 297.07 330.091 297.24 329.69 297.51C329.631 297.544 329.563 297.562 329.495 297.562C329.427 297.562 329.359 297.544 329.3 297.51Z" fill="#263238"/>
<path d="M341.46 302.06C341.398 302.039 341.342 302.004 341.297 301.957C341.252 301.91 341.219 301.853 341.2 301.79C341.072 301.303 340.834 300.852 340.504 300.47C340.175 300.089 339.763 299.788 339.3 299.59C339.201 299.556 339.119 299.485 339.07 299.392C339.022 299.299 339.011 299.191 339.04 299.09C339.052 299.042 339.075 298.996 339.106 298.957C339.137 298.917 339.175 298.885 339.22 298.861C339.264 298.838 339.313 298.824 339.363 298.82C339.413 298.816 339.463 298.823 339.51 298.84C340.099 299.077 340.624 299.448 341.044 299.924C341.464 300.4 341.767 300.967 341.93 301.58C341.947 301.629 341.954 301.68 341.951 301.731C341.947 301.783 341.933 301.833 341.91 301.879C341.887 301.924 341.854 301.965 341.815 301.998C341.775 302.031 341.729 302.055 341.68 302.07C341.607 302.087 341.531 302.083 341.46 302.06Z" fill="#263238"/>
<path d="M420.83 415.71L426.53 407.42L411.18 394.05L405.48 402.34L420.83 415.71Z" fill="#FFC3BD"/>
<path d="M422.59 403.5L415.9 411.83C415.783 411.97 415.719 412.147 415.719 412.33C415.719 412.513 415.783 412.69 415.9 412.83L421.11 419.31C421.234 419.464 421.391 419.589 421.569 419.674C421.747 419.76 421.942 419.804 422.14 419.804C422.338 419.804 422.533 419.76 422.711 419.674C422.89 419.589 423.046 419.464 423.17 419.31C425.28 416.59 426.69 414.5 429.4 411.12C431.07 409.04 436.32 402.96 438.63 400.12C440.94 397.28 438.3 394.48 437.09 395.44C431.66 399.73 426.83 402.36 423.91 402.76C423.393 402.834 422.923 403.098 422.59 403.5Z" fill="#263238"/>
<path d="M422.15 400.08C422.198 399.926 422.281 399.784 422.392 399.667C422.503 399.549 422.639 399.458 422.79 399.4C422.895 399.346 423.012 399.317 423.13 399.317C423.248 399.317 423.365 399.346 423.47 399.4C424.38 399.93 424.47 402.71 424.47 403.03C424.469 403.067 424.457 403.103 424.435 403.133C424.414 403.163 424.384 403.186 424.35 403.2C424.318 403.219 424.282 403.23 424.245 403.23C424.208 403.23 424.172 403.219 424.14 403.2C423.32 402.5 421.96 401.2 422.14 400.2C422.138 400.16 422.141 400.119 422.15 400.08ZM424.08 402.61C424 401.49 423.75 400.01 423.27 399.73C423.223 399.707 423.172 399.695 423.12 399.695C423.068 399.695 423.017 399.707 422.97 399.73C422.855 399.77 422.753 399.839 422.672 399.93C422.592 400.021 422.536 400.131 422.51 400.25C422.44 400.77 423 401.64 424.08 402.61Z" fill="#5632FA"/>
<path d="M424.27 401.78C424.5 400.93 424.94 400.01 425.49 399.78C425.635 399.724 425.794 399.716 425.943 399.757C426.093 399.799 426.225 399.887 426.32 400.01C426.42 400.112 426.495 400.235 426.54 400.37C426.585 400.505 426.599 400.649 426.58 400.79C426.44 401.89 424.5 403.13 424.41 403.18C424.381 403.198 424.349 403.207 424.315 403.207C424.281 403.207 424.248 403.198 424.22 403.18C424.188 403.17 424.161 403.15 424.141 403.123C424.121 403.096 424.11 403.063 424.11 403.03C424.093 402.607 424.147 402.185 424.27 401.78ZM426.17 400.87C426.17 400.87 426.17 400.8 426.17 400.76C426.182 400.671 426.173 400.58 426.144 400.495C426.114 400.409 426.065 400.332 426 400.27C425.84 400.09 425.72 400.1 425.63 400.14C425.1 400.34 424.54 401.76 424.47 402.69C425.193 402.25 425.781 401.621 426.17 400.87Z" fill="#5632FA"/>
<path opacity="0.2" d="M405.48 402.34L411.18 394.05L419.1 400.94L412.56 408.51L405.48 402.34Z" fill="black"/>
<path d="M322.81 392.89C322.81 392.89 366.51 348.49 386.18 367.49C398.43 379.33 416.43 395.64 416.43 395.64L406 405.79C406 405.79 379.58 391.74 372.7 383.98C336.6 424.34 304.34 427.1 307.24 395.98C312.357 394.613 317.558 393.581 322.81 392.89Z" fill="#5632FA"/>
<path d="M419.54 395.73L408.08 410.13L403.22 406.87L414.93 391.58L419.54 395.73Z" fill="#263238"/>
<path d="M307.35 338.61L308.21 356.81C308.37 359.81 308.56 362.81 308.79 365.81C308.91 367.28 309.07 368.73 309.23 370.12C309.32 370.82 309.41 371.5 309.52 372.12C309.63 372.74 309.75 373.32 309.83 373.67C309.835 373.723 309.835 373.777 309.83 373.83C309.665 373.533 309.432 373.279 309.15 373.09C308.987 372.972 308.804 372.884 308.61 372.83C308.5 372.83 308.44 372.83 308.49 372.83C309.309 372.956 310.145 372.902 310.94 372.67C313.585 372.01 316.161 371.096 318.63 369.94C321.3 368.77 323.96 367.42 326.63 366.02C329.3 364.62 331.97 363.13 334.56 361.68L338.3 366.68C333.611 371.043 328.519 374.951 323.09 378.35C321.7 379.2 320.26 380.02 318.74 380.79C317.153 381.609 315.504 382.304 313.81 382.87C312.846 383.188 311.86 383.436 310.86 383.61C309.631 383.839 308.376 383.9 307.13 383.79C306.325 383.715 305.532 383.54 304.77 383.27C303.852 382.947 302.988 382.485 302.21 381.9C301.399 381.271 300.699 380.511 300.14 379.65C299.885 379.256 299.658 378.845 299.46 378.42L299.08 377.5C298.729 376.548 298.431 375.576 298.19 374.59C297.97 373.7 297.79 372.87 297.63 372.04C297.3 370.39 297.05 368.78 296.83 367.19C296.37 364.01 296.04 360.87 295.76 357.74C295.2 351.48 294.87 345.29 294.76 339L307.35 338.61Z" fill="#FFC3BD"/>
<path d="M304.28 326.88C299.57 327.41 292.52 331.88 292.28 352.66L312.48 351.07C312.48 351.07 322 324.85 304.28 326.88Z" fill="#263238"/>
<path d="M351.55 351.15L344.05 351.64C343.607 351.701 343.193 351.894 342.862 352.194C342.53 352.494 342.296 352.886 342.19 353.32L338.68 369.8C338.621 369.979 338.607 370.171 338.64 370.357C338.674 370.543 338.754 370.717 338.872 370.864C338.99 371.012 339.144 371.127 339.318 371.199C339.492 371.272 339.682 371.3 339.87 371.28L347.37 370.79C347.814 370.731 348.229 370.539 348.561 370.239C348.893 369.939 349.127 369.545 349.23 369.11L352.74 352.63C352.8 352.451 352.813 352.259 352.78 352.074C352.746 351.888 352.667 351.713 352.548 351.566C352.43 351.419 352.277 351.303 352.102 351.231C351.928 351.158 351.738 351.13 351.55 351.15Z" fill="#5632FA"/>
<path d="M335.17 361.29L341.38 359.13L339.85 368.86C339.85 368.86 332.93 370.38 332.36 366.66L333.36 363.35C333.486 362.892 333.715 362.469 334.028 362.112C334.342 361.755 334.732 361.474 335.17 361.29Z" fill="#FFC3BD"/>
<path d="M348.48 359.95L345.79 368.61L339.85 368.86L341.38 359.13L348.48 359.95Z" fill="#FFC3BD"/>
<path d="M133.38 156C128.5 144.67 155.11 132.81 162.63 150.45C175.4 156 159.08 179.6 162.77 183.6C166.46 187.6 169.24 182.75 169.24 182.75C169.24 182.75 172.97 192.69 163.46 200.65C154.94 207.8 129.31 209.74 129.25 195.65C129.17 177.33 139.78 170.85 133.38 156Z" fill="#263238"/>
<path d="M157.85 393.86L150.69 398.03L133.5 378.38L142.42 370.33L157.85 393.86Z" fill="#FF8B7B"/>
<path d="M149.87 396.23L157.26 390.56C157.376 390.457 157.525 390.4 157.68 390.4C157.835 390.4 157.985 390.457 158.1 390.56L163 395.4C163.12 395.535 163.21 395.695 163.263 395.867C163.317 396.04 163.334 396.222 163.312 396.402C163.29 396.581 163.231 396.754 163.137 396.909C163.044 397.064 162.919 397.197 162.77 397.3C160.17 399.23 158.82 400.04 155.57 402.54C153.57 404.07 149.57 407.43 146.83 409.54C144.09 411.65 142.01 409.22 142.98 408.11C147.36 403.11 148.31 400.11 148.98 397.44C149.132 396.948 149.445 396.521 149.87 396.23Z" fill="#263238"/>
<path d="M148.21 399.19C147.696 399.669 147.039 399.968 146.34 400.04C146.173 400.033 146.011 399.985 145.868 399.899C145.724 399.814 145.605 399.694 145.52 399.55C145.471 399.459 145.445 399.358 145.445 399.255C145.445 399.152 145.471 399.051 145.52 398.96C146.02 397.96 149.58 397.17 149.98 397.08C150.018 397.074 150.058 397.079 150.093 397.095C150.129 397.111 150.159 397.137 150.18 397.17C150.199 397.203 150.209 397.241 150.209 397.28C150.209 397.319 150.199 397.357 150.18 397.39C149.58 398.049 148.92 398.651 148.21 399.19ZM146.09 398.82C145.985 398.892 145.9 398.988 145.84 399.1C145.818 399.134 145.806 399.174 145.806 399.215C145.806 399.256 145.818 399.296 145.84 399.33C145.892 399.426 145.968 399.507 146.061 399.565C146.154 399.623 146.261 399.656 146.37 399.66C147.02 399.66 148.15 398.92 149.43 397.58C148.256 397.807 147.128 398.226 146.09 398.82Z" fill="#5632FA"/>
<path d="M150.09 397.41H150.01C149.01 397.68 146.44 397.54 146.01 396.75C145.92 396.57 145.89 396.26 146.29 395.89C146.575 395.625 146.951 395.478 147.34 395.48C148.65 395.48 150.05 397.03 150.1 397.1C150.117 397.127 150.126 397.158 150.126 397.19C150.126 397.222 150.117 397.253 150.1 397.28C150.11 397.323 150.106 397.369 150.09 397.41ZM146.65 396.12L146.56 396.2C146.3 396.44 146.36 396.56 146.38 396.6C146.62 397.08 148.45 397.31 149.59 397.15C148.993 396.498 148.2 396.059 147.33 395.9C147.085 395.895 146.845 395.972 146.65 396.12Z" fill="#5632FA"/>
<path d="M131.82 197.08C131.35 199.23 130.82 201.17 130.22 203.18C129.62 205.19 129 207.18 128.28 209.1C126.896 213.045 125.273 216.902 123.42 220.65L121.95 223.45C121.42 224.37 120.95 225.29 120.35 226.2L119.49 227.55C119.19 228.01 118.96 228.42 118.55 228.96C118.35 229.22 118.15 229.48 117.88 229.79C117.54 230.19 117.158 230.552 116.74 230.87C116.234 231.257 115.651 231.53 115.03 231.67C114.741 231.735 114.446 231.768 114.15 231.77C113.788 231.774 113.427 231.723 113.08 231.62C112.431 231.445 111.841 231.099 111.37 230.62C110.898 230.147 110.554 229.562 110.37 228.92C110.277 228.624 110.214 228.319 110.18 228.01C110.102 227.289 110.102 226.561 110.18 225.84C110.25 225.24 110.35 224.68 110.45 224.14C110.65 223.05 110.91 222.03 111.18 221.01C111.741 219.003 112.409 217.027 113.18 215.09L117.18 215.97L116.91 221.97C116.91 222.97 116.85 223.91 116.84 224.83C116.84 225.29 116.84 225.74 116.84 226.14C116.838 226.428 116.879 226.714 116.96 226.99C116.96 226.99 116.96 226.99 116.96 226.81C116.837 226.432 116.624 226.089 116.34 225.81C115.952 225.415 115.471 225.126 114.94 224.97C114.653 224.893 114.357 224.849 114.06 224.84C113.825 224.844 113.59 224.871 113.36 224.92C113.002 225.007 112.663 225.16 112.36 225.37C112.15 225.52 112.23 225.44 112.27 225.37L112.5 224.98L113.84 222.58C114.29 221.74 114.7 220.88 115.14 220.03L116.37 217.43C117.93 213.9 119.37 210.27 120.57 206.57C121.19 204.72 121.76 202.85 122.33 200.98C122.9 199.11 123.41 197.18 123.86 195.41L131.82 197.08Z" fill="#FF8B7B"/>
<path d="M128.4 186.67C125.5 187.14 120.9 205.57 120.9 205.57L127.59 210.72C127.59 210.72 134.3 197.4 134.59 191.41C134.79 187.07 130.59 186.32 128.4 186.67Z" fill="#FF8B7B"/>
<path d="M117.91 216.86L116.78 207.7L111.53 215.4C111.754 216.328 112.242 217.171 112.936 217.826C113.631 218.481 114.501 218.921 115.44 219.09L117.91 216.86Z" fill="#FF8B7B"/>
<path d="M154.6 409.41L146.6 409.68L145.07 381.76L156.17 381.92L154.6 409.41Z" fill="#FF8B7B"/>
<path d="M146.06 407.13L155.06 407.07C155.211 407.064 155.357 407.118 155.469 407.218C155.581 407.319 155.65 407.46 155.66 407.61L156.2 414.7C156.205 415.072 156.063 415.431 155.805 415.699C155.546 415.967 155.192 416.122 154.82 416.13C151.7 416.13 150.2 415.92 146.26 415.95C143.83 415.95 140.26 416.24 136.92 416.27C133.58 416.3 133.61 412.98 135.03 412.67C141.38 411.28 142.49 409.42 144.72 407.67C145.096 407.349 145.567 407.16 146.06 407.13Z" fill="#263238"/>
<path d="M127.91 186.61C127.91 186.61 123.91 187.61 123.91 234.94L156 237.78C157.61 224.59 158.91 216.48 169.54 190.06C165.179 188.725 160.723 187.722 156.21 187.06C151.395 186.277 146.528 185.846 141.65 185.77C135.25 185.78 127.91 186.61 127.91 186.61Z" fill="#5632FA"/>
<path opacity="0.2" d="M163.17 196.1L164.88 201.93C163.54 205.54 162.43 208.73 161.5 211.6C160.791 206.374 161.364 201.055 163.17 196.1Z" fill="black"/>
<path d="M116.78 207.7L111.53 215.4L117.91 215.03L121.31 207.99L116.78 207.7Z" fill="#FF8B7B"/>
<path d="M120.11 225.41L126.11 225.32C126.308 225.316 126.502 225.271 126.681 225.186C126.86 225.102 127.018 224.98 127.147 224.83C127.275 224.68 127.371 224.504 127.426 224.315C127.482 224.125 127.497 223.926 127.47 223.73L125.6 210.28C125.556 209.942 125.388 209.633 125.13 209.412C124.871 209.19 124.54 209.072 124.2 209.08L118.2 209.17C118.002 209.171 117.807 209.214 117.628 209.297C117.448 209.38 117.288 209.5 117.16 209.65C117.031 209.799 116.935 209.975 116.88 210.165C116.825 210.355 116.811 210.554 116.84 210.75L118.71 224.2C118.754 224.538 118.921 224.849 119.179 225.072C119.438 225.295 119.769 225.415 120.11 225.41Z" fill="#263238"/>
<path d="M157.41 170.41C155.72 175.05 153.41 183.61 156.16 187.05C151.376 191.049 146.016 194.303 140.26 196.7C136.91 188.88 141.6 185.76 141.6 185.76C147.03 184.97 147.53 181.05 147.21 177.3L157.41 170.41Z" fill="#FF8B7B"/>
<path d="M135.43 165.09C134.59 178.98 126.24 182.96 128.2 190.09C130.97 200.09 142.27 192.26 142.27 192.26C142.27 192.26 136.12 194.26 135.73 189.4C135.41 185.4 149.61 186.02 145.67 176.61C143.14 170.55 135.43 165.09 135.43 165.09Z" fill="#263238"/>
<path opacity="0.2" d="M154.5 173.92L147.22 177.3C147.3 178.178 147.3 179.062 147.22 179.94C148.74 180.08 152.68 178.94 154.17 176.48C154.583 175.694 154.7 174.785 154.5 173.92Z" fill="black"/>
<path d="M158.67 157.35C159.4 165.23 159.88 168.56 156.55 173.18C151.55 180.13 141.7 179.31 138.63 171.79C135.86 165.03 135.13 153.27 142.3 148.98C143.875 148.024 145.669 147.486 147.511 147.419C149.352 147.352 151.18 147.757 152.821 148.596C154.462 149.435 155.861 150.68 156.885 152.212C157.908 153.744 158.523 155.513 158.67 157.35Z" fill="#FF8B7B"/>
<path d="M156.93 149.44C150.71 145.17 145.54 153.37 156.58 161.34C167.62 169.31 164 154.29 156.93 149.44Z" fill="#263238"/>
<path d="M153.62 147.15C156.19 149.46 140.89 157.98 132.57 155.15C124.25 152.32 130.93 145.97 133.96 145.15C131.36 147.66 135.91 151.47 138.11 149.09C140.31 146.71 148.46 142.52 153.62 147.15Z" fill="#263238"/>
<path d="M123.87 234.94C123.87 234.94 106.94 306.63 108.43 324.73C110.16 345.89 133.3 380 133.3 380L143.93 370.35C143.93 370.35 133.38 342.41 125.57 324.21C128.07 306.01 150.17 254.59 150.17 237.27L123.87 234.94Z" fill="#5632FA"/>
<path opacity="0.6" d="M123.87 234.94C123.87 234.94 106.94 306.63 108.43 324.73C110.16 345.89 133.3 380 133.3 380L143.93 370.35C143.93 370.35 133.38 342.41 125.57 324.21C128.07 306.01 150.17 254.59 150.17 237.27L123.87 234.94Z" fill="black"/>
<path d="M145.89 371.79L133.33 381.15L130.11 378.7L143.89 367.83L145.89 371.79Z" fill="#5632FA"/>
<path opacity="0.2" d="M136.4 266.47C127.07 279.39 126.62 303.15 127.2 316.47C130.4 304.21 137.11 285.9 142.46 269.4C142.33 263.08 140.76 260.42 136.4 266.47Z" fill="black"/>
<path d="M129.89 235C129.89 235 136.09 296.91 138.16 317.81C140.62 342.62 144.23 382.41 144.23 382.41L156.17 381.91C156.17 381.91 158.79 348.18 156.85 325.91C157.2 296.41 161.55 256.3 155.95 237.74L129.89 235Z" fill="#5632FA"/>
<path opacity="0.6" d="M129.89 235C129.89 235 136.09 296.91 138.16 317.81C140.62 342.62 144.23 382.41 144.23 382.41L156.17 381.91C156.17 381.91 158.79 348.18 156.85 325.91C157.2 296.41 161.55 256.3 155.95 237.74L129.89 235Z" fill="black"/>
<path d="M157.08 384.1L143.38 383.71L142.42 379.4L157.92 378.97L157.08 384.1Z" fill="#5632FA"/>
<path d="M146.41 161.7C146.51 162.33 146.25 162.9 145.83 162.97C145.41 163.04 145 162.57 144.9 161.97C144.8 161.37 145.06 160.77 145.48 160.7C145.9 160.63 146.31 161.06 146.41 161.7Z" fill="#263238"/>
<path d="M139.22 162.81C139.32 163.45 139.06 164.02 138.64 164.08C138.22 164.14 137.81 163.68 137.71 163.08C137.61 162.48 137.87 161.87 138.29 161.81C138.71 161.75 139.12 162.18 139.22 162.81Z" fill="#263238"/>
<path d="M138.47 161.78L136.88 161.58C136.88 161.58 137.85 162.65 138.47 161.78Z" fill="#263238"/>
<path d="M141.58 163.44C141.235 164.977 140.684 166.461 139.94 167.85C140.3 168.03 140.695 168.13 141.097 168.142C141.5 168.154 141.9 168.078 142.27 167.92L141.58 163.44Z" fill="#FF5652"/>
<path d="M146.41 169.67C146.085 169.785 145.751 169.869 145.41 169.92C145.361 169.929 145.31 169.918 145.269 169.89C145.228 169.862 145.2 169.819 145.19 169.77C145.186 169.745 145.186 169.719 145.192 169.695C145.198 169.67 145.209 169.647 145.224 169.626C145.239 169.606 145.257 169.588 145.279 169.575C145.301 169.562 145.325 169.554 145.35 169.55C146.145 169.447 146.904 169.157 147.564 168.703C148.225 168.249 148.769 167.645 149.15 166.94C149.173 166.897 149.212 166.864 149.258 166.848C149.304 166.831 149.354 166.832 149.4 166.85C149.423 166.86 149.444 166.874 149.461 166.892C149.479 166.91 149.493 166.931 149.502 166.954C149.511 166.977 149.516 167.002 149.515 167.027C149.515 167.052 149.51 167.077 149.5 167.1C148.845 168.327 147.736 169.249 146.41 169.67Z" fill="#263238"/>
<path d="M160.86 162.73C160.806 163.496 160.602 164.243 160.259 164.929C159.916 165.616 159.44 166.228 158.86 166.73C157.32 168.05 155.69 166.89 155.4 164.98C155.13 163.27 155.62 160.52 157.51 159.98C157.92 159.854 158.355 159.831 158.776 159.914C159.197 159.997 159.591 160.183 159.923 160.456C160.255 160.728 160.514 161.078 160.678 161.475C160.841 161.872 160.904 162.303 160.86 162.73Z" fill="#FF8B7B"/>
<path d="M149.68 157.76C149.63 157.77 149.579 157.77 149.529 157.759C149.479 157.749 149.432 157.729 149.39 157.7C149.008 157.416 148.564 157.227 148.094 157.149C147.625 157.071 147.144 157.105 146.69 157.25C146.644 157.269 146.595 157.279 146.545 157.279C146.495 157.279 146.446 157.269 146.4 157.249C146.355 157.23 146.313 157.201 146.279 157.165C146.245 157.129 146.218 157.087 146.2 157.04C146.164 156.947 146.166 156.844 146.205 156.752C146.244 156.66 146.318 156.588 146.41 156.55C146.979 156.356 147.586 156.303 148.18 156.396C148.774 156.488 149.337 156.723 149.82 157.08C149.901 157.137 149.957 157.223 149.976 157.32C149.994 157.417 149.974 157.517 149.92 157.6C149.861 157.679 149.776 157.736 149.68 157.76Z" fill="#263238"/>
<path d="M136.1 160.05C136.056 160.07 136.008 160.08 135.96 160.08C135.912 160.08 135.864 160.07 135.82 160.05C135.775 160.03 135.734 160 135.701 159.964C135.667 159.927 135.641 159.885 135.624 159.838C135.607 159.791 135.6 159.742 135.603 159.692C135.606 159.643 135.618 159.594 135.64 159.55C135.877 158.999 136.243 158.513 136.708 158.133C137.173 157.754 137.722 157.492 138.31 157.37C138.406 157.363 138.501 157.392 138.576 157.452C138.651 157.513 138.7 157.599 138.714 157.694C138.728 157.789 138.705 157.886 138.651 157.965C138.596 158.044 138.514 158.099 138.42 158.12C137.956 158.224 137.524 158.438 137.159 158.742C136.794 159.046 136.506 159.433 136.32 159.87C136.297 159.913 136.266 159.952 136.229 159.983C136.191 160.014 136.147 160.036 136.1 160.05Z" fill="#263238"/>
<path d="M171.65 199.66C171.8 201.11 171.88 202.38 171.92 203.73C171.96 205.08 171.99 206.38 171.98 207.73C171.94 210.397 171.77 213.063 171.47 215.73C171.163 218.429 170.662 221.103 169.97 223.73C169.613 225.087 169.179 226.422 168.67 227.73C168.42 228.39 168.14 229.05 167.85 229.73C167.85 229.73 167.7 230.05 167.6 230.23C167.494 230.437 167.371 230.635 167.23 230.82C166.983 231.185 166.694 231.521 166.37 231.82C165.844 232.271 165.254 232.641 164.62 232.92C163.714 233.299 162.757 233.542 161.78 233.64C161 233.726 160.215 233.76 159.43 233.74C158.017 233.702 156.608 233.578 155.21 233.37C152.591 232.956 149.997 232.395 147.44 231.69C144.93 231 142.44 230.24 140.01 229.43C137.58 228.62 135.16 227.72 132.75 226.71L134 222.87C136.43 223.4 138.9 223.96 141.36 224.43C143.82 224.9 146.27 225.43 148.71 225.79C151.15 226.15 153.59 226.52 155.95 226.67C157.078 226.759 158.21 226.779 159.34 226.73C159.823 226.707 160.304 226.654 160.78 226.57C161.068 226.525 161.348 226.437 161.61 226.31C161.61 226.31 161.61 226.31 161.46 226.39C161.368 226.461 161.287 226.545 161.22 226.64L161.1 226.82C161.1 226.82 161.01 227.02 161.1 226.89C161.29 226.37 161.48 225.89 161.64 225.31C161.98 224.23 162.26 223.12 162.51 221.99C162.978 219.678 163.312 217.341 163.51 214.99C163.73 212.61 163.8 210.19 163.8 207.77C163.8 206.56 163.8 205.35 163.8 204.14C163.8 202.93 163.69 201.68 163.62 200.6L171.65 199.66Z" fill="#FF8B7B"/>
<path d="M169.46 190.06C172.91 192.31 171.74 211.92 171.74 211.92L163.62 213.55C163.62 213.55 163.55 203.55 162.68 197.06C162.09 192.65 167 188.45 169.46 190.06Z" fill="#FF8B7B"/>
<path d="M141.66 408.06C141.563 407.93 141.496 407.78 141.467 407.62C141.437 407.46 141.445 407.296 141.49 407.14C141.509 407.024 141.556 406.915 141.628 406.823C141.699 406.73 141.793 406.657 141.9 406.61C142.9 406.18 145.18 407.73 145.44 407.9C145.469 407.921 145.492 407.95 145.504 407.984C145.517 408.018 145.519 408.055 145.51 408.09C145.501 408.127 145.483 408.162 145.456 408.19C145.43 408.218 145.397 408.239 145.36 408.25C144.31 408.5 142.44 408.82 141.74 408.14L141.66 408.06ZM144.84 407.98C143.84 407.39 142.54 406.72 142.03 406.98C141.984 407.002 141.943 407.036 141.914 407.078C141.884 407.12 141.865 407.169 141.86 407.22C141.823 407.335 141.818 407.458 141.844 407.575C141.871 407.693 141.928 407.802 142.01 407.89C142.39 408.23 143.43 408.27 144.84 408V407.98Z" fill="#5632FA"/>
<path d="M144.28 407.35C143.997 407.066 143.773 406.729 143.62 406.359C143.467 405.988 143.389 405.591 143.39 405.19C143.434 405.042 143.523 404.911 143.645 404.816C143.767 404.721 143.916 404.666 144.07 404.66C144.21 404.638 144.353 404.648 144.488 404.69C144.623 404.731 144.747 404.803 144.85 404.9C145.66 405.66 145.52 407.96 145.51 408.06C145.509 408.094 145.499 408.128 145.481 408.157C145.464 408.187 145.439 408.212 145.41 408.23C145.381 408.245 145.348 408.253 145.315 408.253C145.282 408.253 145.25 408.245 145.22 408.23C144.863 407.988 144.545 407.691 144.28 407.35ZM144.66 405.27C144.636 405.241 144.609 405.214 144.58 405.19C144.516 405.128 144.438 405.081 144.354 405.054C144.269 405.026 144.179 405.018 144.09 405.03C143.84 405.03 143.79 405.17 143.76 405.26C143.61 405.81 144.43 407.1 145.15 407.7C145.216 406.86 145.047 406.018 144.66 405.27Z" fill="#5632FA"/>
<path d="M156.74 235.92L157.09 238.92C157.17 239.15 156.87 239.36 156.5 239.32L123.5 236.4C123.21 236.4 122.99 236.21 123 236.03L123.19 233.11C123.19 232.91 123.48 232.76 123.79 232.79L156.28 235.67C156.372 235.668 156.462 235.69 156.543 235.734C156.624 235.778 156.692 235.842 156.74 235.92Z" fill="white"/>
<path d="M151.78 239.2L152.65 239.27C152.83 239.27 152.97 239.21 152.98 239.1L153.18 235.31C153.18 235.2 153.05 235.09 152.88 235.08L152 235C151.83 235 151.68 235.06 151.67 235.17L151.47 238.97C151.47 239.08 151.61 239.18 151.78 239.2Z" fill="#5632FA"/>
<path opacity="0.6" d="M151.78 239.2L152.65 239.27C152.83 239.27 152.97 239.21 152.98 239.1L153.18 235.31C153.18 235.2 153.05 235.09 152.88 235.08L152 235C151.83 235 151.68 235.06 151.67 235.17L151.47 238.97C151.47 239.08 151.61 239.18 151.78 239.2Z" fill="black"/>
<path d="M125.87 236.9L126.74 236.98C126.92 236.98 127.06 236.92 127.07 236.81L127.27 233.01C127.27 232.9 127.14 232.8 126.97 232.78L126.1 232.71C125.92 232.71 125.78 232.77 125.77 232.88L125.57 236.67C125.56 236.78 125.7 236.89 125.87 236.9Z" fill="#5632FA"/>
<path opacity="0.6" d="M125.87 236.9L126.74 236.98C126.92 236.98 127.06 236.92 127.07 236.81L127.27 233.01C127.27 232.9 127.14 232.8 126.97 232.78L126.1 232.71C125.92 232.71 125.78 232.77 125.77 232.88L125.57 236.67C125.56 236.78 125.7 236.89 125.87 236.9Z" fill="black"/>
<path d="M138.83 238.05L139.7 238.13C139.87 238.13 140.02 238.06 140.02 237.95L140.23 234.16C140.23 234.05 140.1 233.95 139.92 233.93L139.05 233.85C138.88 233.85 138.73 233.92 138.73 234.03L138.52 237.82C138.52 237.93 138.66 238 138.83 238.05Z" fill="#5632FA"/>
<path opacity="0.6" d="M138.83 238.05L139.7 238.13C139.87 238.13 140.02 238.06 140.02 237.95L140.23 234.16C140.23 234.05 140.1 233.95 139.92 233.93L139.05 233.85C138.88 233.85 138.73 233.92 138.73 234.03L138.52 237.82C138.52 237.93 138.66 238 138.83 238.05Z" fill="black"/>
<path d="M135.25 223.11L130.25 216.44L128.17 224.44C128.17 224.44 131.89 227.69 135.05 226.44L135.25 223.11Z" fill="#FF8B7B"/>
<path d="M123.85 214.97L122.46 221.72L129.21 225.17L130.28 216.44L123.85 214.97Z" fill="#FF8B7B"/>
<path d="M145.67 160.67L144.07 160.47C144.07 160.47 145 161.54 145.67 160.67Z" fill="#263238"/>
</svg>
