<svg width="50" height="55" viewBox="0 0 50 55" fill="none" xmlns="http://www.w3.org/2000/svg">
<path d="M42.8571 5H7.14286C3.19797 5 0 8.19797 0 12.1429V47.8571C0 51.802 3.19797 55 7.14286 55H42.8571C46.802 55 50 51.802 50 47.8571V12.1429C50 8.19797 46.802 5 42.8571 5Z" fill="#5271FF" fill-opacity="0.3"/>
<path d="M0 12.1429C0 8.198 3.19796 5 7.14286 5H42.8571C46.802 5 50 8.198 50 12.1429V20H0V12.1429Z" fill="#5271FF"/>
<path d="M12.8571 12.8571C14.8296 12.8571 16.4286 11.2581 16.4286 9.28566C16.4286 7.31322 14.8296 5.71423 12.8571 5.71423C10.8847 5.71423 9.28571 7.31322 9.28571 9.28566C9.28571 11.2581 10.8847 12.8571 12.8571 12.8571Z" stroke="#5632FA" stroke-width="2"/>
<path d="M36.4286 12.8571C38.401 12.8571 40 11.2581 40 9.28566C40 7.31322 38.401 5.71423 36.4286 5.71423C34.4561 5.71423 32.8571 7.31322 32.8571 9.28566C32.8571 11.2581 34.4561 12.8571 36.4286 12.8571Z" stroke="#5632FA" stroke-width="2"/>
<path d="M15.7143 4.28573C15.7143 2.70778 14.4351 1.42859 12.8571 1.42859C11.2792 1.42859 10 2.70778 10 4.28573V9.28573C10 10.8637 11.2792 12.1429 12.8571 12.1429C14.4351 12.1429 15.7143 10.8637 15.7143 9.28573V4.28573Z" fill="#D9D9D9"/>
<path d="M39.2857 4.28573C39.2857 2.70778 38.0065 1.42859 36.4286 1.42859C34.8506 1.42859 33.5714 2.70778 33.5714 4.28573V9.28573C33.5714 10.8637 34.8506 12.1429 36.4286 12.1429C38.0065 12.1429 39.2857 10.8637 39.2857 9.28573V4.28573Z" fill="#D9D9D9"/>
<path d="M13.5828 30.6V27.504H19.3668V45H15.9108V30.6H13.5828ZM22.5421 41.592V38.952L30.3901 27.72H34.3021V38.664H36.4141V41.592H34.3021V45H30.9421V41.592H22.5421ZM31.1581 31.32L26.2381 38.664H31.1581V31.32Z" fill="#5632FA"/>
</svg>
