<svg width="50" height="55" viewBox="0 0 50 55" fill="none" xmlns="http://www.w3.org/2000/svg">
<path d="M42.8571 5H7.14286C3.19797 5 0 8.19797 0 12.1429V47.8571C0 51.802 3.19797 55 7.14286 55H42.8571C46.802 55 50 51.802 50 47.8571V12.1429C50 8.19797 46.802 5 42.8571 5Z" fill="#5271FF" fill-opacity="0.3"/>
<path d="M0 12.1429C0 8.198 3.19796 5 7.14286 5H42.8571C46.802 5 50 8.198 50 12.1429V20H0V12.1429Z" fill="#5271FF"/>
<path d="M12.8571 12.8571C14.8296 12.8571 16.4286 11.2581 16.4286 9.28566C16.4286 7.31322 14.8296 5.71423 12.8571 5.71423C10.8847 5.71423 9.28571 7.31322 9.28571 9.28566C9.28571 11.2581 10.8847 12.8571 12.8571 12.8571Z" stroke="#5632FA" stroke-width="2"/>
<path d="M36.4286 12.8571C38.401 12.8571 40 11.2581 40 9.28566C40 7.31322 38.401 5.71423 36.4286 5.71423C34.4561 5.71423 32.8571 7.31322 32.8571 9.28566C32.8571 11.2581 34.4561 12.8571 36.4286 12.8571Z" stroke="#5632FA" stroke-width="2"/>
<path d="M15.7143 4.28573C15.7143 2.70778 14.4351 1.42859 12.8571 1.42859C11.2792 1.42859 10 2.70778 10 4.28573V9.28573C10 10.8637 11.2792 12.1429 12.8571 12.1429C14.4351 12.1429 15.7143 10.8637 15.7143 9.28573V4.28573Z" fill="#D9D9D9"/>
<path d="M39.2857 4.28573C39.2857 2.70778 38.0065 1.42859 36.4286 1.42859C34.8506 1.42859 33.5714 2.70778 33.5714 4.28573V9.28573C33.5714 10.8637 34.8506 12.1429 36.4286 12.1429C38.0065 12.1429 39.2857 10.8637 39.2857 9.28573V4.28573Z" fill="#D9D9D9"/>
<path d="M13.8632 41.208C15.3992 39.928 16.6232 38.864 17.5352 38.016C18.4472 37.152 19.2072 36.256 19.8152 35.328C20.4232 34.4 20.7272 33.488 20.7272 32.592C20.7272 31.776 20.5352 31.136 20.1512 30.672C19.7672 30.208 19.1752 29.976 18.3752 29.976C17.5752 29.976 16.9592 30.248 16.5272 30.792C16.0952 31.32 15.8712 32.048 15.8552 32.976H12.5912C12.6552 31.056 13.2232 29.6 14.2952 28.608C15.3832 27.616 16.7592 27.12 18.4232 27.12C20.2472 27.12 21.6472 27.608 22.6232 28.584C23.5992 29.544 24.0872 30.816 24.0872 32.4C24.0872 33.648 23.7512 34.84 23.0792 35.976C22.4072 37.112 21.6392 38.104 20.7752 38.952C19.9112 39.784 18.7832 40.792 17.3912 41.976H24.4712V44.76H12.6152V42.264L13.8632 41.208ZM37.7244 30.048L31.3404 45H27.9324L34.3644 30.432H26.1564V27.552H37.7244V30.048Z" fill="#5632FA"/>
</svg>
