<svg width="50" height="55" viewBox="0 0 50 55" fill="none" xmlns="http://www.w3.org/2000/svg">
<path d="M42.8571 5H7.14286C3.19797 5 0 8.19797 0 12.1429V47.8571C0 51.802 3.19797 55 7.14286 55H42.8571C46.802 55 50 51.802 50 47.8571V12.1429C50 8.19797 46.802 5 42.8571 5Z" fill="#5271FF" fill-opacity="0.3"/>
<path d="M0 12.1429C0 8.198 3.19796 5 7.14286 5H42.8571C46.802 5 50 8.198 50 12.1429V20H0V12.1429Z" fill="#5271FF"/>
<path d="M12.8571 12.8571C14.8296 12.8571 16.4286 11.2581 16.4286 9.28566C16.4286 7.31322 14.8296 5.71423 12.8571 5.71423C10.8847 5.71423 9.28571 7.31322 9.28571 9.28566C9.28571 11.2581 10.8847 12.8571 12.8571 12.8571Z" stroke="#5632FA" stroke-width="2"/>
<path d="M36.4286 12.8571C38.401 12.8571 40 11.2581 40 9.28566C40 7.31322 38.401 5.71423 36.4286 5.71423C34.4561 5.71423 32.8571 7.31322 32.8571 9.28566C32.8571 11.2581 34.4561 12.8571 36.4286 12.8571Z" stroke="#5632FA" stroke-width="2"/>
<path d="M15.7143 4.28573C15.7143 2.70778 14.4351 1.42859 12.8571 1.42859C11.2792 1.42859 10 2.70778 10 4.28573V9.28573C10 10.8637 11.2792 12.1429 12.8571 12.1429C14.4351 12.1429 15.7143 10.8637 15.7143 9.28573V4.28573Z" fill="#D9D9D9"/>
<path d="M39.2857 4.28573C39.2857 2.70778 38.0065 1.42859 36.4286 1.42859C34.8506 1.42859 33.5714 2.70778 33.5714 4.28573V9.28573C33.5714 10.8637 34.8506 12.1429 36.4286 12.1429C38.0065 12.1429 39.2857 10.8637 39.2857 9.28573V4.28573Z" fill="#D9D9D9"/>
<path d="M11.2915 36.024C11.2915 33.256 11.7875 31.088 12.7795 29.52C13.7875 27.952 15.4515 27.168 17.7715 27.168C20.0915 27.168 21.7475 27.952 22.7395 29.52C23.7475 31.088 24.2515 33.256 24.2515 36.024C24.2515 38.808 23.7475 40.992 22.7395 42.576C21.7475 44.16 20.0915 44.952 17.7715 44.952C15.4515 44.952 13.7875 44.16 12.7795 42.576C11.7875 40.992 11.2915 38.808 11.2915 36.024ZM20.9395 36.024C20.9395 34.84 20.8595 33.848 20.6995 33.048C20.5555 32.232 20.2515 31.568 19.7875 31.056C19.3395 30.544 18.6675 30.288 17.7715 30.288C16.8755 30.288 16.1955 30.544 15.7315 31.056C15.2835 31.568 14.9795 32.232 14.8195 33.048C14.6755 33.848 14.6035 34.84 14.6035 36.024C14.6035 37.24 14.6755 38.264 14.8195 39.096C14.9635 39.912 15.2675 40.576 15.7315 41.088C16.1955 41.584 16.8755 41.832 17.7715 41.832C18.6675 41.832 19.3475 41.584 19.8115 41.088C20.2755 40.576 20.5795 39.912 20.7235 39.096C20.8675 38.264 20.9395 37.24 20.9395 36.024ZM38.5672 30.408H30.7912V34.512C31.1272 34.096 31.6072 33.76 32.2312 33.504C32.8552 33.232 33.5192 33.096 34.2232 33.096C35.5032 33.096 36.5512 33.376 37.3672 33.936C38.1832 34.496 38.7752 35.216 39.1432 36.096C39.5112 36.96 39.6952 37.888 39.6952 38.88C39.6952 40.72 39.1672 42.2 38.1112 43.32C37.0712 44.44 35.5832 45 33.6472 45C31.8232 45 30.3672 44.544 29.2792 43.632C28.1912 42.72 27.5752 41.528 27.4312 40.056H30.6952C30.8392 40.696 31.1592 41.208 31.6552 41.592C32.1672 41.976 32.8152 42.168 33.5992 42.168C34.5432 42.168 35.2552 41.872 35.7352 41.28C36.2152 40.688 36.4552 39.904 36.4552 38.928C36.4552 37.936 36.2072 37.184 35.7112 36.672C35.2312 36.144 34.5192 35.88 33.5752 35.88C32.9032 35.88 32.3432 36.048 31.8952 36.384C31.4472 36.72 31.1272 37.168 30.9352 37.728H27.7192V27.456H38.5672V30.408Z" fill="#5632FA"/>
</svg>
