<svg width="70" height="20" viewBox="0 0 70 20" fill="none" xmlns="http://www.w3.org/2000/svg">
<path d="M34.9729 0.000372222C34.7952 0.00597341 34.6241 0.0638809 34.4846 0.165634L26.5885 5.90771C25.5864 6.63674 25 7.75074 25 8.92849V18.718C25 19.4172 25.6313 20 26.3889 20H31.9444C32.702 20 33.3333 19.4172 33.3333 18.718V13.5899C33.3333 13.4386 33.4472 13.3335 33.6111 13.3335H36.3889C36.5528 13.3335 36.6667 13.4386 36.6667 13.5899V18.718C36.6667 19.4172 37.298 20 38.0556 20H43.6111C44.3687 20 45 19.4172 45 18.718V8.92849C45 7.75074 44.4136 6.63674 43.4115 5.90771L35.5154 0.165634C35.3613 0.053264 35.1692 -0.00526421 34.9729 0.000372222ZM35 1.74914L42.3806 7.11663C42.9829 7.55476 43.3333 8.22115 43.3333 8.92849V18.4616H38.3333V13.5899C38.3333 12.6079 37.4528 11.795 36.3889 11.795H33.6111C32.5472 11.795 31.6667 12.6079 31.6667 13.5899V18.4616H26.6667V8.92849C26.6667 8.22115 27.0171 7.55476 27.6194 7.11663L35 1.74914Z" fill="#B7BBC7"/>
</svg>
