<svg width="20" height="20" viewBox="0 0 20 20" fill="none" xmlns="http://www.w3.org/2000/svg">
<path id="Vector" d="M9.97287 0.000372222C9.79518 0.00597341 9.62409 0.0638809 9.48459 0.165634L1.58854 5.90771C0.586376 6.63674 0 7.75074 0 8.92849V18.718C0 19.4172 0.631337 20 1.38889 20H6.94444C7.702 20 8.33333 19.4172 8.33333 18.718V13.5899C8.33333 13.4386 8.4472 13.3335 8.61111 13.3335H11.3889C11.5528 13.3335 11.6667 13.4386 11.6667 13.5899V18.718C11.6667 19.4172 12.298 20 13.0556 20H18.6111C19.3687 20 20 19.4172 20 18.718V8.92849C20 7.75074 19.4136 6.63674 18.4115 5.90771L10.5154 0.165634C10.3613 0.053264 10.1692 -0.00526421 9.97287 0.000372222ZM10 1.74914L17.3806 7.11663C17.9829 7.55476 18.3333 8.22115 18.3333 8.92849V18.4616H13.3333V13.5899C13.3333 12.6079 12.4528 11.795 11.3889 11.795H8.61111C7.54725 11.795 6.66667 12.6079 6.66667 13.5899V18.4616H1.66667V8.92849C1.66667 8.22115 2.01708 7.55476 2.61936 7.11663L10 1.74914Z" fill="#B7BBC7"/>
</svg>
