<svg width="126" height="39" viewBox="0 0 126 39" fill="none" xmlns="http://www.w3.org/2000/svg">
<g id="horizontal-logo-white 1" clip-path="url(#clip0_483_332)">
<g id="Mask group">
<mask id="mask0_483_332" style="mask-type:luminance" maskUnits="userSpaceOnUse" x="0" y="0" width="12" height="33">
<g id="Group">
<path id="Vector" d="M0.0678101 0.159424H11.6139V32.454H0.0678101V0.159424Z" fill="white"/>
</g>
</mask>
<g mask="url(#mask0_483_332)">
<g id="Group_2">
<path id="Vector_2" d="M0.0780029 18.2418V14.2274C0.893763 14.1833 1.5094 14.0612 1.92491 13.8594C2.33872 13.6593 2.69657 13.3218 2.99845 12.8469C3.30033 12.3737 3.50723 11.7802 3.61918 11.0662C3.70905 10.5303 3.75484 9.59916 3.75484 8.27293C3.75484 6.10886 3.8549 4.60115 4.05672 3.74807C4.25855 2.89501 4.62149 2.20815 5.14724 1.69088C5.673 1.17191 6.43955 0.76149 7.44697 0.461306C8.13042 0.259485 9.20398 0.159424 10.671 0.159424H11.5597V4.15849C10.3182 4.15849 9.52114 4.22804 9.16835 4.36712C8.8156 4.50619 8.55611 4.71818 8.38822 5.0014C8.22033 5.28633 8.13554 5.77476 8.13554 6.46672C8.13554 7.16883 8.08464 8.50187 7.98458 10.4641C7.92863 11.5682 7.78275 12.4637 7.54873 13.1488C7.31297 13.834 7.01281 14.4004 6.64987 14.8465C6.28693 15.2925 5.72894 15.7555 4.97935 16.2355C5.64076 16.6136 6.18009 17.058 6.59898 17.5651C7.01959 18.0722 7.34013 18.6878 7.56569 19.4137C7.78956 20.1379 7.93371 21.108 8.00154 22.324C8.07956 24.1743 8.11857 25.3564 8.11857 25.8702C8.11857 26.6063 8.20844 27.1185 8.38822 27.4085C8.56631 27.6985 8.83765 27.919 9.20228 28.0699C9.56522 28.2208 10.3522 28.2954 11.5597 28.2954V32.3098H10.671C9.15989 32.3098 8.00154 32.1894 7.19598 31.9503C6.39038 31.7111 5.71031 31.3126 5.15571 30.7546C4.60114 30.1966 4.22973 29.5081 4.03976 28.6889C3.84982 27.8681 3.75484 26.5774 3.75484 24.8171C3.75484 22.7649 3.66496 21.4319 3.48519 20.818C3.23928 19.9259 2.86786 19.2882 2.36925 18.9032C1.87064 18.5182 1.10745 18.2977 0.0780029 18.2418Z" fill="white"/>
</g>
</g>
</g>
<path id="Vector_3" d="M25.5463 8.48821H22.9175V5.86963H25.5463V8.48821Z" fill="#5271FF"/>
<path id="Vector_4" d="M24.9256 13.7237H22.9175V11.7241H24.9256V13.7237Z" fill="#5271FF"/>
<g id="Mask group_2">
<mask id="mask1_483_332" style="mask-type:luminance" maskUnits="userSpaceOnUse" x="12" y="6" width="14" height="33">
<g id="Group_3">
<path id="Vector_5" d="M12.9164 6.40405H25.0731V38.5834H12.9164V6.40405Z" fill="white"/>
</g>
</mask>
<g mask="url(#mask1_483_332)">
<g id="Group_4">
<path id="Vector_6" d="M17.2819 10.4896V8.48838H19.2899V10.4896H17.2819ZM22.3884 19.8412C21.8847 19.4562 21.5099 18.8185 21.264 17.9264C21.1283 17.4227 21.0469 16.4577 21.0215 15.0331H19.2899V12.4145H20.9825C20.9418 11.4054 20.8519 10.6185 20.7179 10.0555C20.5211 9.23631 20.1497 8.54436 19.6019 7.98129C19.0524 7.41825 18.3758 7.01969 17.5702 6.78563C16.7646 6.5516 15.6063 6.43457 14.0952 6.43457H13.2048V10.432C14.47 10.432 15.284 10.5066 15.6487 10.6575C16.0116 10.8085 16.2643 11.0222 16.4034 11.302C16.5441 11.5801 16.6188 12.1381 16.6306 12.9742C16.6866 15.6284 16.7748 17.3464 16.8986 18.1266C17.0885 19.2646 17.4464 20.2007 17.9738 20.9368C18.3537 21.4489 18.9575 21.973 19.7868 22.5089C19.1474 22.8769 18.6251 23.3026 18.2163 23.7894C17.8076 24.2744 17.4803 24.8646 17.2344 25.5617C16.9885 26.2587 16.8375 27.1864 16.7816 28.3464C16.6917 30.2646 16.6442 31.5637 16.6391 32.2437C16.6323 32.9237 16.5441 33.4073 16.3694 33.6922C16.1965 33.9755 15.9251 34.1923 15.5554 34.3434C15.1856 34.4942 14.4021 34.5688 13.2048 34.5688V38.585H14.0952C15.5605 38.585 16.6357 38.4831 17.3175 38.2832C18.3368 37.9813 19.1084 37.5723 19.6359 37.0536C20.1616 36.5346 20.5211 35.8459 20.7179 34.9878C20.9129 34.1279 21.0113 32.6186 21.0113 30.4545C21.0113 29.1384 21.0571 28.2124 21.1453 27.6782C21.2691 26.9642 21.4794 26.3706 21.7762 25.8957C22.0712 25.4226 22.4274 25.0851 22.8412 24.885C23.2551 24.6831 23.8707 24.561 24.6881 24.517V20.5009C23.6587 20.4466 22.8921 20.2262 22.3884 19.8412Z" fill="#5271FF"/>
</g>
</g>
</g>
<g id="Mask group_3">
<mask id="mask2_483_332" style="mask-type:luminance" maskUnits="userSpaceOnUse" x="28" y="1" width="3" height="3">
<g id="Group_5">
<path id="Vector_7" d="M28.5464 1.19385H30.6766V3.79886H28.5464V1.19385Z" fill="white"/>
</g>
</mask>
<g mask="url(#mask2_483_332)">
<g id="Group_6">
<path id="Vector_8" d="M30.6698 3.40357H28.6617V1.40234H30.6698V3.40357Z" fill="#5271FF"/>
</g>
</g>
</g>
<path id="Vector_9" d="M20.6026 5.86975H16.8562V2.13525H20.6026V5.86975Z" fill="#5271FF"/>
<path id="Vector_10" d="M39.8754 22.5427C39.1056 22.5427 38.3915 22.4087 37.7318 22.1424C37.0753 21.8761 36.5074 21.503 36.0291 21.0231C35.5543 20.5448 35.1828 19.9767 34.9164 19.3203C34.6484 18.6657 34.5162 17.95 34.5162 17.1766C34.5162 16.4083 34.652 15.696 34.9233 15.0397C35.1945 14.38 35.5677 13.8084 36.0428 13.3234C36.5208 12.84 37.0874 12.4618 37.7386 12.1905C38.3931 11.9191 39.102 11.7834 39.862 11.7834C40.6624 11.7834 41.4052 11.9378 42.0939 12.2448C42.7858 12.5534 43.3827 12.9961 43.8848 13.5744L42.311 15.094C42.0124 14.7463 41.6598 14.4732 41.2528 14.2731C40.849 14.0747 40.4065 13.9746 39.9229 13.9746C39.4788 13.9746 39.0717 14.0544 38.7018 14.2121C38.3355 14.3715 38.0134 14.592 37.7386 14.8769C37.4674 15.1584 37.257 15.4942 37.1076 15.8877C36.9584 16.2778 36.8839 16.6983 36.8839 17.1495C36.8839 17.6108 36.96 18.0381 37.1144 18.4316C37.2723 18.8217 37.4876 19.1609 37.7588 19.4492C38.0304 19.7341 38.356 19.9563 38.7357 20.114C39.1157 20.2734 39.5312 20.3515 39.9841 20.3515C40.4758 20.3515 40.9288 20.2497 41.3407 20.0462C41.7513 19.8393 42.1023 19.5611 42.3925 19.2118L43.9594 20.7042C43.4657 21.2927 42.8705 21.7472 42.1753 22.0678C41.4833 22.3832 40.7168 22.5427 39.8754 22.5427Z" fill="white"/>
<path id="Vector_11" d="M53.0251 22.5427C52.2654 22.5427 51.5598 22.4036 50.9085 22.1288C50.2609 21.849 49.6975 21.4691 49.2195 20.9891C48.7444 20.5058 48.3713 19.9377 48.1 19.2864C47.8288 18.6318 47.693 17.9228 47.693 17.163C47.693 16.4033 47.8288 15.696 48.1 15.0397C48.3713 14.38 48.7444 13.8084 49.2195 13.3234C49.6975 12.84 50.2609 12.4618 50.9085 12.1905C51.5598 11.9191 52.2654 11.7834 53.0251 11.7834C53.7714 11.7834 54.4702 11.9191 55.1215 12.1905C55.776 12.4618 56.3426 12.84 56.8173 13.3234C57.2957 13.8084 57.6721 14.38 57.9433 15.0397C58.2182 15.696 58.3572 16.4033 58.3572 17.163C58.3572 17.9228 58.2182 18.6318 57.9433 19.2864C57.6721 19.9377 57.2957 20.5058 56.8173 20.9891C56.3426 21.4691 55.776 21.849 55.1215 22.1288C54.4702 22.4036 53.7714 22.5427 53.0251 22.5427ZM53.0251 20.3515C53.4543 20.3515 53.8476 20.2734 54.2055 20.114C54.5666 19.9563 54.8789 19.7341 55.1417 19.4492C55.4028 19.1609 55.6099 18.8217 55.759 18.4316C55.9082 18.0381 55.9828 17.6159 55.9828 17.163C55.9828 16.7119 55.9082 16.2913 55.759 15.9012C55.6099 15.5078 55.4028 15.172 55.1417 14.8905C54.8789 14.6055 54.5666 14.3817 54.2055 14.2189C53.8476 14.056 53.4543 13.9746 53.0251 13.9746C52.591 13.9746 52.1925 14.056 51.831 14.2189C51.4732 14.3817 51.1629 14.6055 50.9017 14.8905C50.6389 15.172 50.4338 15.5078 50.2843 15.9012C50.1352 16.2913 50.0606 16.7119 50.0606 17.163C50.0606 17.6159 50.1352 18.0381 50.2843 18.4316C50.4338 18.8217 50.6389 19.1558 50.9017 19.4356C51.1629 19.7172 51.4732 19.941 51.831 20.1072C52.1925 20.27 52.591 20.3515 53.0251 20.3515Z" fill="white"/>
<path id="Vector_12" d="M62.929 12.0007H67.0129C67.7863 12.0007 68.4984 12.133 69.1497 12.3942C69.8009 12.6571 70.3659 13.0166 70.8459 13.4728C71.3239 13.9307 71.7006 14.4751 71.9719 15.1077C72.2431 15.7369 72.3789 16.4221 72.3789 17.1632C72.3789 17.901 72.2431 18.5844 71.9719 19.212C71.7006 19.8412 71.3239 20.3856 70.8459 20.8469C70.3659 21.3082 69.8009 21.6711 69.1497 21.9323C68.4984 22.1951 67.7863 22.3257 67.0129 22.3257H62.929V12.0007ZM67.0331 20.216C67.4623 20.216 67.8557 20.1396 68.2135 19.9853C68.575 19.8327 68.8885 19.619 69.1565 19.3476C69.4229 19.0729 69.6313 18.7506 69.7808 18.3843C69.9299 18.0146 70.0045 17.6076 70.0045 17.1632C70.0045 16.7206 69.9299 16.3153 69.7808 15.9489C69.6313 15.5792 69.4229 15.257 69.1565 14.9856C68.8885 14.7109 68.575 14.4955 68.2135 14.3412C67.8557 14.1885 67.4623 14.1105 67.0331 14.1105H65.1813V20.216H67.0331Z" fill="white"/>
<path id="Vector_13" d="M76.6821 15.2365H78.7443V22.3256H76.6821V15.2365ZM77.7133 14.1442C77.374 14.1442 77.0839 14.0272 76.8449 13.7915C76.6092 13.5524 76.4922 13.2624 76.4922 12.9232C76.4922 12.5941 76.6092 12.3109 76.8449 12.0752C77.0839 11.8411 77.374 11.7224 77.7133 11.7224C78.0523 11.7224 78.3372 11.8411 78.5681 12.0752C78.7987 12.3109 78.9139 12.5941 78.9139 12.9232C78.9139 13.2624 78.7987 13.5524 78.5681 13.7915C78.3372 14.0272 78.0523 14.1442 77.7133 14.1442Z" fill="white"/>
<path id="Vector_14" d="M85.7722 16.1728V22.3258H83.642V11.8108H84.8155L90.582 18.1469V12.0007H92.7051V22.5089H91.5384L85.7722 16.1728Z" fill="white"/>
<path id="Vector_15" d="M102.511 22.5291C101.759 22.5291 101.066 22.3951 100.428 22.1288C99.7904 21.8575 99.2359 21.4844 98.766 21.0095C98.2997 20.5312 97.935 19.9699 97.6738 19.3271C97.4159 18.686 97.287 17.9839 97.287 17.2241C97.287 16.4423 97.4228 15.7215 97.694 15.06C97.9656 14.3952 98.342 13.8237 98.8269 13.3437C99.3104 12.8604 99.8786 12.4805 100.53 12.2041C101.181 11.9242 101.886 11.7834 102.646 11.7834C103.461 11.7834 104.213 11.9429 104.905 12.2583C105.597 12.5704 106.189 13.0096 106.683 13.5744L105.116 15.1143C104.785 14.7531 104.414 14.4732 104.003 14.2731C103.591 14.0747 103.155 13.9746 102.694 13.9746C102.25 13.9746 101.842 14.0544 101.473 14.2121C101.106 14.3715 100.784 14.5953 100.509 14.8837C100.238 15.1686 100.028 15.5078 99.8786 15.9012C99.7292 16.2913 99.6546 16.7153 99.6546 17.1766C99.6546 17.6379 99.7292 18.0653 99.8786 18.4588C100.028 18.8488 100.24 19.1829 100.516 19.4628C100.796 19.7392 101.127 19.9546 101.507 20.1072C101.886 20.2616 102.307 20.3379 102.769 20.3379C103.162 20.3379 103.523 20.287 103.854 20.1819C104.188 20.0784 104.5 19.9088 104.79 19.6731V18.2688H102.816V16.4236H107.042V20.5685C106.494 21.1978 105.828 21.6811 105.041 22.0203C104.257 22.3595 103.415 22.5291 102.511 22.5291Z" fill="white"/>
<path id="Vector_16" d="M111.571 15.2365H113.633V22.3256H111.571V15.2365ZM112.602 14.1442C112.262 14.1442 111.973 14.0272 111.733 13.7915C111.498 13.5524 111.381 13.2624 111.381 12.9232C111.381 12.5941 111.498 12.3109 111.733 12.0752C111.973 11.8411 112.262 11.7224 112.602 11.7224C112.941 11.7224 113.226 11.8411 113.457 12.0752C113.687 12.3109 113.803 12.5941 113.803 12.9232C113.803 13.2624 113.687 13.5524 113.457 13.7915C113.226 14.0272 112.941 14.1442 112.602 14.1442Z" fill="#5271FF"/>
<path id="Vector_17" d="M121.305 22.6037C120.505 22.6037 119.786 22.4239 119.148 22.0678C118.51 21.7065 117.996 21.1859 117.608 20.5075L119.182 19.1982C119.714 20.153 120.418 20.6296 121.292 20.6296C121.68 20.6296 121.994 20.5346 122.235 20.3447C122.479 20.1547 122.601 19.9071 122.601 19.5984C122.601 19.3101 122.482 19.0608 122.248 18.8522C122.012 18.6402 121.585 18.4011 120.966 18.1331C120.011 17.7125 119.314 17.2427 118.877 16.7221C118.443 16.2031 118.225 15.5824 118.225 14.8633C118.225 14.4122 118.307 13.995 118.47 13.6151C118.636 13.2352 118.866 12.9096 119.161 12.6382C119.46 12.3669 119.814 12.1565 120.227 12.0073C120.637 11.8581 121.09 11.7834 121.584 11.7834C122.889 11.7834 123.995 12.3448 124.901 13.4659L123.401 14.8226C123.117 14.4393 122.828 14.1578 122.54 13.9814C122.255 13.8016 121.936 13.7101 121.584 13.7101C121.244 13.7101 120.975 13.7966 120.776 13.9678C120.576 14.1358 120.478 14.3647 120.478 14.653C120.478 14.9702 120.61 15.233 120.878 15.44C121.144 15.6435 121.544 15.864 122.079 16.098C123.056 16.5321 123.761 17.0138 124.195 17.5429C124.633 18.0721 124.853 18.6962 124.853 19.4153C124.853 19.8868 124.765 20.3175 124.589 20.711C124.416 21.1011 124.175 21.4369 123.863 21.7218C123.554 22.0033 123.181 22.2204 122.743 22.373C122.309 22.5257 121.829 22.6037 121.305 22.6037Z" fill="#5271FF"/>
</g>
<defs>
<clipPath id="clip0_483_332">
<rect width="125.04" height="38.7494" fill="white"/>
</clipPath>
</defs>
</svg>
