<svg width="126" height="40" viewBox="0 0 126 40" fill="none" xmlns="http://www.w3.org/2000/svg">
<g id="Horizontal Logo 1">
<g id="Mask group">
<mask id="mask0_2_749" style="mask-type:luminance" maskUnits="userSpaceOnUse" x="0" y="0" width="12" height="34">
<g id="Group">
<path id="Vector" d="M0.0700073 0.164551H11.9888V33.5014H0.0700073V0.164551Z" fill="white"/>
</g>
</mask>
<g mask="url(#mask0_2_749)">
<g id="Group_2">
<path id="Vector_2" d="M0.0805054 18.8305V14.6866C0.922593 14.6411 1.5581 14.515 1.98702 14.3067C2.41419 14.1001 2.78359 13.7517 3.09521 13.2615C3.40683 12.7731 3.62041 12.1604 3.73598 11.4233C3.82875 10.8701 3.87601 9.90896 3.87601 8.53991C3.87601 6.306 3.9793 4.74963 4.18764 3.86902C4.39597 2.98843 4.77063 2.2794 5.31335 1.74543C5.85608 1.20972 6.64737 0.786049 7.6873 0.476176C8.39282 0.267842 9.50102 0.164551 11.0154 0.164551H11.9327V4.29269C10.6512 4.29269 9.82841 4.36449 9.46424 4.50805C9.10011 4.65161 8.83224 4.87044 8.65893 5.1628C8.48562 5.45692 8.39809 5.96112 8.39809 6.67541C8.39809 7.40018 8.34555 8.77625 8.24226 10.8018C8.18451 11.9415 8.03393 12.8659 7.79235 13.5732C7.54898 14.2805 7.23913 14.8652 6.86448 15.3256C6.48982 15.7861 5.91382 16.264 5.14004 16.7594C5.8228 17.1498 6.37954 17.6085 6.81194 18.132C7.24613 18.6554 7.57702 19.2909 7.80986 20.0403C8.04095 20.7878 8.18976 21.7892 8.25977 23.0445C8.34031 24.9545 8.38058 26.1747 8.38058 26.7052C8.38058 27.465 8.47335 27.9937 8.65893 28.2931C8.84276 28.5924 9.12287 28.82 9.49927 28.9758C9.87393 29.1316 10.6863 29.2087 11.9327 29.2087V33.3526H11.0154C9.45551 33.3526 8.25977 33.2283 7.42821 32.9814C6.59661 32.7346 5.8946 32.3232 5.32209 31.7472C4.74962 31.1712 4.36623 30.4604 4.17013 29.6148C3.97406 28.7675 3.87601 27.4352 3.87601 25.618C3.87601 23.4996 3.78324 22.1236 3.59766 21.4898C3.34381 20.569 2.96041 19.9107 2.4457 19.5133C1.931 19.1159 1.14318 18.8883 0.0805054 18.8305Z" fill="#393536"/>
</g>
</g>
</g>
<path id="Vector_3" d="M26.3708 8.76217H23.6572V6.05908H26.3708V8.76217Z" fill="#5271FF"/>
<path id="Vector_4" d="M25.7301 14.1666H23.6572V12.1025H25.7301V14.1666Z" fill="#5271FF"/>
<g id="Mask group_2">
<mask id="mask1_2_749" style="mask-type:luminance" maskUnits="userSpaceOnUse" x="13" y="6" width="13" height="34">
<g id="Group_3">
<path id="Vector_5" d="M13.3334 6.6106H25.8824V39.8285H13.3334V6.6106Z" fill="white"/>
</g>
</mask>
<g mask="url(#mask1_2_749)">
<g id="Group_4">
<path id="Vector_6" d="M17.8397 10.828V8.76219H19.9125V10.828H17.8397ZM23.111 20.4814C22.591 20.084 22.2042 19.4257 21.9503 18.5048C21.8102 17.9849 21.7262 16.9887 21.7 15.5182H19.9125V12.8151H21.6597C21.6177 11.7734 21.5249 10.9611 21.3866 10.3798C21.1835 9.53426 20.8001 8.81997 20.2346 8.23873C19.6674 7.65752 18.9689 7.24609 18.1373 7.00448C17.3057 6.7629 16.11 6.64209 14.5501 6.64209H13.631V10.7685C14.937 10.7685 15.7773 10.8455 16.1537 11.0013C16.5284 11.1571 16.7892 11.3778 16.9328 11.6666C17.0781 11.9537 17.1551 12.5297 17.1674 13.3928C17.2252 16.1326 17.3162 17.9061 17.444 18.7114C17.6401 19.8862 18.0095 20.8525 18.5539 21.6123C18.9461 22.141 19.5693 22.682 20.4254 23.2352C19.7654 23.6151 19.2262 24.0546 18.8043 24.557C18.3824 25.0577 18.0445 25.667 17.7906 26.3865C17.5368 27.106 17.381 28.0637 17.3232 29.2612C17.2304 31.2412 17.1814 32.5822 17.1762 33.2842C17.1691 33.9862 17.0781 34.4853 16.8978 34.7794C16.7192 35.0719 16.4391 35.2957 16.0574 35.4517C15.6758 35.6073 14.867 35.6843 13.631 35.6843V39.8302H14.5501C16.0627 39.8302 17.1726 39.725 17.8764 39.5186C18.9286 39.207 19.7252 38.7848 20.2696 38.2494C20.8124 37.7136 21.1835 37.0026 21.3866 36.1169C21.5879 35.2292 21.6894 33.6712 21.6894 31.4373C21.6894 30.0787 21.7367 29.1228 21.8278 28.5714C21.9556 27.8343 22.1726 27.2216 22.479 26.7314C22.7836 26.2429 23.1513 25.8946 23.5784 25.688C24.0056 25.4796 24.6411 25.3536 25.485 25.3081V21.1624C24.4223 21.1064 23.631 20.8788 23.111 20.4814Z" fill="#5271FF"/>
</g>
</g>
</g>
<g id="Mask group_3">
<mask id="mask2_2_749" style="mask-type:luminance" maskUnits="userSpaceOnUse" x="29" y="1" width="3" height="3">
<g id="Group_5">
<path id="Vector_7" d="M29.4678 1.23242H31.6666V3.92151H29.4678V1.23242Z" fill="white"/>
</g>
</mask>
<g mask="url(#mask2_2_749)">
<g id="Group_6">
<path id="Vector_8" d="M31.6596 3.51357H29.5868V1.44775H31.6596V3.51357Z" fill="#5271FF"/>
</g>
</g>
</g>
<path id="Vector_9" d="M21.2675 6.05913H17.4002V2.2041H21.2675V6.05913Z" fill="#5271FF"/>
<path id="Vector_10" d="M37.1287 23.2703C36.3341 23.2703 35.597 23.132 34.9159 22.8571C34.2383 22.5822 33.6521 22.1971 33.1582 21.7016C32.668 21.208 32.2847 20.6215 32.0098 19.9439C31.7332 19.2682 31.5966 18.5294 31.5966 17.731C31.5966 16.938 31.7367 16.2027 32.0168 15.5252C32.2969 14.8442 32.6821 14.2541 33.1722 13.7535C33.6659 13.2545 34.2507 12.8641 34.923 12.584C35.5986 12.3039 36.3304 12.1638 37.1149 12.1638C37.9412 12.1638 38.7079 12.3231 39.4188 12.64C40.1331 12.9586 40.7492 13.4156 41.2675 14.0126L39.643 15.5812C39.3348 15.2223 38.9707 14.9404 38.5506 14.7338C38.1338 14.529 37.677 14.4257 37.1778 14.4257C36.7193 14.4257 36.2991 14.508 35.9173 14.6708C35.5391 14.8354 35.2067 15.063 34.923 15.3571C34.643 15.6477 34.4259 15.9943 34.2716 16.4005C34.1176 16.8032 34.0407 17.2373 34.0407 17.703C34.0407 18.1792 34.1193 18.6204 34.2786 19.0266C34.4417 19.4292 34.6638 19.7794 34.9438 20.077C35.2242 20.3711 35.5603 20.6005 35.9522 20.7632C36.3445 20.9278 36.7734 21.0084 37.241 21.0084C37.7486 21.0084 38.2161 20.9033 38.6413 20.6932C39.0652 20.4796 39.4275 20.1925 39.727 19.8319L41.3445 21.3725C40.8349 21.98 40.2205 22.4492 39.5028 22.7801C38.7886 23.1057 37.9973 23.2703 37.1287 23.2703Z" fill="#393536"/>
<path id="Vector_11" d="M50.7029 23.2703C49.9187 23.2703 49.1903 23.1267 48.518 22.8431C47.8494 22.5542 47.2679 22.1621 46.7745 21.6666C46.284 21.1677 45.8988 20.5812 45.6188 19.9089C45.3388 19.2332 45.1987 18.5014 45.1987 17.717C45.1987 16.9327 45.3388 16.2027 45.6188 15.5252C45.8988 14.8442 46.284 14.2541 46.7745 13.7535C47.2679 13.2545 47.8494 12.8641 48.518 12.584C49.1903 12.3039 49.9187 12.1638 50.7029 12.1638C51.4733 12.1638 52.1946 12.3039 52.8669 12.584C53.5425 12.8641 54.1274 13.2545 54.6175 13.7535C55.1113 14.2541 55.4998 14.8442 55.7798 15.5252C56.0635 16.2027 56.2071 16.9327 56.2071 17.717C56.2071 18.5014 56.0635 19.2332 55.7798 19.9089C55.4998 20.5812 55.1113 21.1677 54.6175 21.6666C54.1274 22.1621 53.5425 22.5542 52.8669 22.8431C52.1946 23.1267 51.4733 23.2703 50.7029 23.2703ZM50.7029 21.0084C51.1459 21.0084 51.5519 20.9278 51.9214 20.7632C52.2941 20.6005 52.6165 20.3711 52.8877 20.077C53.1573 19.7794 53.3711 19.4292 53.5251 19.0266C53.679 18.6204 53.756 18.1845 53.756 17.717C53.756 17.2513 53.679 16.8172 53.5251 16.4145C53.3711 16.0084 53.1573 15.6617 52.8877 15.3711C52.6165 15.077 52.2941 14.8459 51.9214 14.6778C51.5519 14.5098 51.1459 14.4257 50.7029 14.4257C50.2548 14.4257 49.8434 14.5098 49.4703 14.6778C49.1009 14.8459 48.7805 15.077 48.5109 15.3711C48.2397 15.6617 48.0279 16.0084 47.8736 16.4145C47.7197 16.8172 47.6427 17.2513 47.6427 17.717C47.6427 18.1845 47.7197 18.6204 47.8736 19.0266C48.0279 19.4292 48.2397 19.7741 48.5109 20.063C48.7805 20.3536 49.1009 20.5847 49.4703 20.7563C49.8434 20.9243 50.2548 21.0084 50.7029 21.0084Z" fill="#393536"/>
<path id="Vector_12" d="M60.9264 12.3879H65.1422C65.9405 12.3879 66.6756 12.5245 67.3479 12.7941C68.0202 13.0655 68.6034 13.4366 69.0988 13.9075C69.5923 14.3802 69.9812 14.9422 70.2612 15.5952C70.5412 16.2447 70.6813 16.952 70.6813 17.717C70.6813 18.4786 70.5412 19.1841 70.2612 19.8319C69.9812 20.4814 69.5923 21.0434 69.0988 21.5196C68.6034 21.9958 68.0202 22.3704 67.3479 22.64C66.6756 22.9114 65.9405 23.0462 65.1422 23.0462H60.9264V12.3879ZM65.163 20.8683C65.6061 20.8683 66.0121 20.7895 66.3815 20.6302C66.7546 20.4726 67.0783 20.2521 67.355 19.972C67.6299 19.6883 67.845 19.3557 67.9993 18.9776C68.1533 18.5959 68.2303 18.1757 68.2303 17.717C68.2303 17.2601 68.1533 16.8417 67.9993 16.4636C67.845 16.0819 67.6299 15.7493 67.355 15.4692C67.0783 15.1856 66.7546 14.9632 66.3815 14.8039C66.0121 14.6463 65.6061 14.5658 65.163 14.5658H63.2514V20.8683H65.163Z" fill="#393536"/>
<path id="Vector_13" d="M75.1233 15.7283H77.2521V23.0462H75.1233V15.7283ZM76.1879 14.6008C75.8376 14.6008 75.5381 14.48 75.2914 14.2367C75.048 13.9898 74.9274 13.6905 74.9274 13.3403C74.9274 13.0007 75.048 12.7083 75.2914 12.465C75.5381 12.2234 75.8376 12.1008 76.1879 12.1008C76.5378 12.1008 76.8319 12.2234 77.0702 12.465C77.3082 12.7083 77.4272 13.0007 77.4272 13.3403C77.4272 13.6905 77.3082 13.9898 77.0702 14.2367C76.8319 14.48 76.5378 14.6008 76.1879 14.6008Z" fill="#393536"/>
<path id="Vector_14" d="M84.5069 16.6947V23.0462H82.3079V12.1919H83.5193L89.4719 18.7325V12.388H91.6635V23.2353H90.4591L84.5069 16.6947Z" fill="#393536"/>
<path id="Vector_15" d="M101.786 23.2563C101.01 23.2563 100.294 23.1179 99.6356 22.8431C98.9774 22.563 98.405 22.1778 97.92 21.6876C97.4386 21.1939 97.0622 20.6144 96.7926 19.9509C96.5264 19.2892 96.3932 18.5644 96.3932 17.7801C96.3932 16.973 96.5334 16.2289 96.8134 15.5462C97.0938 14.8599 97.4823 14.2699 97.9828 13.7745C98.482 13.2755 99.0685 12.8833 99.7408 12.598C100.413 12.3091 101.141 12.1638 101.926 12.1638C102.766 12.1638 103.543 12.3284 104.257 12.654C104.972 12.9762 105.583 13.4296 106.092 14.0126L104.475 15.6022C104.133 15.2293 103.75 14.9404 103.326 14.7338C102.901 14.529 102.451 14.4257 101.974 14.4257C101.516 14.4257 101.096 14.508 100.714 14.6708C100.336 14.8354 100.003 15.0665 99.7196 15.3641C99.4396 15.6582 99.2225 16.0084 99.0685 16.4145C98.9143 16.8172 98.8373 17.2548 98.8373 17.731C98.8373 18.2072 98.9143 18.6484 99.0685 19.0546C99.2225 19.4572 99.4413 19.8021 99.7267 20.091C100.015 20.3764 100.357 20.5987 100.749 20.7563C101.141 20.9156 101.575 20.9943 102.052 20.9943C102.458 20.9943 102.831 20.9418 103.172 20.8333C103.517 20.7265 103.839 20.5514 104.138 20.3081V18.8585H102.1V16.9537H106.464V21.2325C105.898 21.882 105.21 22.3809 104.398 22.731C103.589 23.0812 102.719 23.2563 101.786 23.2563Z" fill="#393536"/>
<path id="Vector_16" d="M111.138 15.7283H113.267V23.0462H111.138V15.7283ZM112.202 14.6008C111.852 14.6008 111.553 14.48 111.306 14.2367C111.063 13.9898 110.942 13.6905 110.942 13.3403C110.942 13.0007 111.063 12.7083 111.306 12.465C111.553 12.2234 111.852 12.1008 112.202 12.1008C112.553 12.1008 112.847 12.2234 113.085 12.465C113.323 12.7083 113.442 13.0007 113.442 13.3403C113.442 13.6905 113.323 13.9898 113.085 14.2367C112.847 14.48 112.553 14.6008 112.202 14.6008Z" fill="#5271FF"/>
<path id="Vector_17" d="M121.187 23.3333C120.36 23.3333 119.618 23.1477 118.96 22.7801C118.302 22.4072 117.771 21.8697 117.37 21.1694L118.995 19.8179C119.545 20.8035 120.271 21.2955 121.173 21.2955C121.574 21.2955 121.897 21.1974 122.146 21.0014C122.398 20.8053 122.524 20.5497 122.524 20.231C122.524 19.9334 122.402 19.6761 122.16 19.4607C121.917 19.2419 121.476 18.995 120.837 18.7184C119.851 18.2843 119.131 17.7993 118.68 17.2619C118.232 16.7261 118.007 16.0854 118.007 15.3431C118.007 14.8774 118.091 14.4467 118.259 14.0546C118.431 13.6624 118.669 13.3263 118.974 13.0462C119.282 12.7661 119.648 12.549 120.073 12.3949C120.497 12.2409 120.964 12.1638 121.474 12.1638C122.822 12.1638 123.963 12.7433 124.898 13.9005L123.351 15.3011C123.056 14.9054 122.759 14.6148 122.461 14.4327C122.167 14.2471 121.838 14.1526 121.474 14.1526C121.124 14.1526 120.845 14.2419 120.641 14.4187C120.434 14.5921 120.332 14.8284 120.332 15.126C120.332 15.4534 120.469 15.7247 120.746 15.9383C121.021 16.1484 121.434 16.376 121.985 16.6176C122.994 17.0658 123.722 17.563 124.17 18.1092C124.622 18.6554 124.849 19.2997 124.849 20.042C124.849 20.5287 124.758 20.9733 124.576 21.3795C124.398 21.7822 124.149 22.1288 123.827 22.4229C123.508 22.7135 123.123 22.9376 122.671 23.0952C122.223 23.2528 121.728 23.3333 121.187 23.3333Z" fill="#5271FF"/>
</g>
</svg>
