<svg width="10" height="10" viewBox="0 0 10 10" fill="none" xmlns="http://www.w3.org/2000/svg">
<g id="icons8-location-50 1">
<g id="Group">
<path id="Vector" d="M3.70001 0.480048C2.32001 1.10005 1.62001 2.54005 1.88001 4.26005C2.10001 5.66005 4.42001 9.80005 5.00001 9.80005C5.32001 9.80005 7.36001 6.50005 7.80001 5.26005C8.52001 3.26005 8.18001 1.80005 6.76001 0.740048C6.10001 0.240048 4.50001 0.100048 3.70001 0.480048ZM6.36001 1.00005C8.34001 2.22005 8.20001 4.60005 5.94001 7.94005C5.48001 8.64005 5.04001 9.20005 4.98001 9.20005C4.90001 9.20005 4.48001 8.64005 4.04001 7.96005C2.32001 5.32005 1.82001 3.26005 2.58001 2.04005C3.44001 0.680048 5.08001 0.220048 6.36001 1.00005Z" fill="black"/>
<path id="Vector_2" d="M4.04003 2.66001C3.48003 3.26001 3.48003 4.02001 4.06003 4.56001C4.66003 5.12001 5.42003 5.12001 5.96003 4.54001C6.52003 3.94001 6.52003 3.18001 5.94003 2.64001C5.34003 2.08001 4.58003 2.08001 4.04003 2.66001ZM5.68003 2.92001C6.30003 3.52001 5.86003 4.60001 5.00003 4.60001C4.52003 4.60001 4.00003 4.08001 4.00003 3.60001C4.00003 3.12001 4.52003 2.60001 5.00003 2.60001C5.20003 2.60001 5.52003 2.74001 5.68003 2.92001Z" fill="black"/>
</g>
</g>
</svg>
