<svg width="40" height="51" viewBox="0 0 40 51" fill="none" xmlns="http://www.w3.org/2000/svg">
<g id="Logo Without Text 1">
<g id="Mask group">
<mask id="mask0_23_438" style="mask-type:luminance" maskUnits="userSpaceOnUse" x="0" y="0" width="16" height="42">
<g id="Group">
<path id="Vector" d="M0.0876465 0.206055H15.0175V41.9648H0.0876465V0.206055Z" fill="white"/>
</g>
</mask>
<g mask="url(#mask0_23_438)">
<g id="Group_2">
<path id="Vector_2" d="M0.10083 23.5876V18.3968C1.15566 18.3398 1.95171 18.1819 2.48899 17.921C3.02408 17.6622 3.4868 17.2258 3.87715 16.6117C4.26749 15.9999 4.53503 15.2324 4.67979 14.3091C4.796 13.6162 4.8552 12.4122 4.8552 10.6973C4.8552 7.89903 4.98459 5.94947 5.24555 4.84639C5.50652 3.74334 5.97583 2.85518 6.65566 2.18632C7.33549 1.51527 8.32669 0.984562 9.62934 0.596407C10.5131 0.33544 11.9013 0.206055 13.7982 0.206055H14.9473V5.37709C13.3421 5.37709 12.3114 5.46703 11.8552 5.64686C11.3991 5.82669 11.0635 6.10079 10.8464 6.46702C10.6293 6.83545 10.5197 7.46703 10.5197 8.36176C10.5197 9.26964 10.4539 10.9933 10.3245 13.5306C10.2522 14.9583 10.0635 16.1162 9.76092 17.0021C9.45608 17.8881 9.06795 18.6205 8.59865 19.1973C8.12934 19.7741 7.40783 20.3727 6.43857 20.9933C7.29381 21.4824 7.9912 22.0569 8.53284 22.7126C9.07671 23.3683 9.4912 24.1644 9.78286 25.103C10.0723 26.0394 10.2587 27.2938 10.3464 28.8661C10.4473 31.2587 10.4978 32.7872 10.4978 33.4517C10.4978 34.4034 10.614 35.0657 10.8464 35.4407C11.0767 35.8157 11.4276 36.1008 11.8991 36.296C12.3684 36.4912 13.3859 36.5876 14.9473 36.5876V41.7784H13.7982C11.8443 41.7784 10.3464 41.6227 9.3048 41.3135C8.26311 41.0043 7.38374 40.489 6.66661 39.7674C5.94951 39.046 5.46926 38.1556 5.22362 37.0964C4.97802 36.035 4.8552 34.3661 4.8552 32.0898C4.8552 29.4363 4.73899 27.7126 4.50652 26.9188C4.18855 25.7653 3.70829 24.9407 3.06355 24.4429C2.41881 23.9451 1.43197 23.66 0.10083 23.5876Z" fill="#393536"/>
</g>
</g>
</g>
<path id="Vector_3" d="M33.0329 10.9758H29.6338V7.58984H33.0329V10.9758Z" fill="#5271FF"/>
<path id="Vector_4" d="M32.2303 17.7457H29.6338V15.1602H32.2303V17.7457Z" fill="#5271FF"/>
<g id="Mask group_2">
<mask id="mask1_23_438" style="mask-type:luminance" maskUnits="userSpaceOnUse" x="16" y="8" width="17" height="42">
<g id="Group_3">
<path id="Vector_5" d="M16.7017 8.28076H32.4209V49.8906H16.7017V8.28076Z" fill="white"/>
</g>
</mask>
<g mask="url(#mask1_23_438)">
<g id="Group_4">
<path id="Vector_6" d="M22.3464 13.5637V10.976H24.9429V13.5637H22.3464ZM28.9495 25.6558C28.2981 25.158 27.8135 24.3335 27.4955 23.18C27.3201 22.5287 27.2148 21.2809 27.1819 19.4388H24.9429V16.0528H27.1315C27.0788 14.7479 26.9626 13.7304 26.7894 13.0023C26.535 11.9431 26.0547 11.0484 25.3464 10.3203C24.6359 9.59227 23.7609 9.0769 22.7192 8.77425C21.6775 8.47164 20.1797 8.32031 18.2258 8.32031H17.0745V13.4892C18.7104 13.4892 19.7631 13.5857 20.2345 13.7809C20.7039 13.976 21.0306 14.2524 21.2104 14.6142C21.3924 14.9738 21.4889 15.6953 21.5043 16.7765C21.5767 20.2085 21.6907 22.43 21.8508 23.4388C22.0964 24.9102 22.5591 26.1208 23.2411 27.0725C23.7324 27.7348 24.513 28.4124 25.5854 29.1054C24.7587 29.5813 24.0832 30.1317 23.5547 30.7611C23.0262 31.3883 22.603 32.1515 22.285 33.0528C21.967 33.9541 21.7718 35.1537 21.6995 36.6537C21.5832 39.1339 21.5218 40.8137 21.5153 41.6931C21.5065 42.5724 21.3924 43.1976 21.1665 43.566C20.9429 43.9324 20.592 44.2128 20.1139 44.4081C19.6359 44.6031 18.6227 44.6995 17.0745 44.6995V49.8928H18.2258C20.1205 49.8928 21.5108 49.761 22.3924 49.5025C23.7104 49.1121 24.7082 48.5833 25.3903 47.9126C26.0701 47.2414 26.535 46.3509 26.7894 45.2414C27.0416 44.1294 27.1687 42.1778 27.1687 39.3795C27.1687 37.6778 27.228 36.4804 27.342 35.7896C27.5021 34.8664 27.774 34.0988 28.1578 33.4848C28.5393 32.8729 28.9999 32.4366 29.535 32.1778C30.0701 31.9168 30.8661 31.7589 31.9231 31.7019V26.5089C30.592 26.4388 29.6008 26.1537 28.9495 25.6558Z" fill="#5271FF"/>
</g>
</g>
</g>
<g id="Mask group_3">
<mask id="mask2_23_438" style="mask-type:luminance" maskUnits="userSpaceOnUse" x="36" y="1" width="4" height="4">
<g id="Group_5">
<path id="Vector_7" d="M36.9124 1.54395H39.6667V4.91238H36.9124V1.54395Z" fill="white"/>
</g>
</mask>
<g mask="url(#mask2_23_438)">
<g id="Group_6">
<path id="Vector_8" d="M39.658 4.40143H37.0615V1.81372H39.658V4.40143Z" fill="#5271FF"/>
</g>
</g>
</g>
<path id="Vector_9" d="M26.6404 7.58991H21.7961V2.76099H26.6404V7.58991Z" fill="#5271FF"/>
</g>
</svg>
