<svg width="20" height="20" viewBox="0 0 20 20" fill="none" xmlns="http://www.w3.org/2000/svg">
<g id="icons8-for-you 1" clip-path="url(#clip0_74_563)">
<path id="Vector" d="M0.47619 0C0.349901 1.26271e-05 0.228787 0.0501866 0.139487 0.139487C0.0501866 0.228787 1.26271e-05 0.349901 0 0.47619V19.5238C1.26271e-05 19.6501 0.0501866 19.7712 0.139487 19.8605C0.228787 19.9498 0.349901 20 0.47619 20H19.5238C19.6501 20 19.7712 19.9498 19.8605 19.8605C19.9498 19.7712 20 19.6501 20 19.5238V0.47619C20 0.349901 19.9498 0.228787 19.8605 0.139487C19.7712 0.0501866 19.6501 1.26271e-05 19.5238 0H0.47619ZM0.952381 0.952381H19.0476V19.0476H0.952381V0.952381ZM4.19922 2.38095C2.93984 2.38095 1.90476 3.40578 1.90476 4.66146C1.90476 7.13227 4.65421 8.31276 5.41109 8.9388L5.71429 9.18899L6.01749 8.9388C6.77429 8.31283 9.52381 7.13266 9.52381 4.66146C9.52381 3.40578 8.48873 2.38095 7.22935 2.38095C6.62878 2.38095 6.12459 2.66071 5.71429 3.03943C5.30399 2.66071 4.79979 2.38095 4.19922 2.38095ZM10.4762 2.38095V3.33333H18.0952V2.38095H10.4762ZM4.19922 3.33333C4.67084 3.33333 5.07888 3.57164 5.31901 3.93043L5.71429 4.52102L6.10956 3.93043C6.34969 3.57164 6.75773 3.33333 7.22935 3.33333C7.9776 3.33333 8.57143 3.92476 8.57143 4.66146C8.57143 6.26825 6.82415 7.1604 5.71429 7.98177C4.60447 7.16037 2.85714 6.26774 2.85714 4.66146C2.85714 3.92476 3.45097 3.33333 4.19922 3.33333ZM10.4762 5.2381V6.19048H18.0952V5.2381H10.4762ZM10.4762 8.09524V9.04762H18.0952V8.09524H10.4762ZM1.90476 10.9524V11.9048H9.52381V10.9524H1.90476ZM10.4762 10.9524V11.9048H18.0952V10.9524H10.4762ZM1.90476 13.8095V14.7619H9.52381V13.8095H1.90476ZM10.4762 13.8095V14.7619H18.0952V13.8095H10.4762ZM1.90476 16.6667V17.619H9.52381V16.6667H1.90476ZM10.4762 16.6667V17.619H18.0952V16.6667H10.4762Z" fill="#B7BBC7"/>
</g>
<defs>
<clipPath id="clip0_74_563">
<rect width="20" height="20" fill="white"/>
</clipPath>
</defs>
</svg>
