<svg width="70" height="20" viewBox="0 0 70 20" fill="none" xmlns="http://www.w3.org/2000/svg">
<g clip-path="url(#clip0_346_274)">
<path d="M25.4762 0C25.3499 1.26271e-05 25.2288 0.0501866 25.1395 0.139487C25.0502 0.228787 25 0.349901 25 0.47619V19.5238C25 19.6501 25.0502 19.7712 25.1395 19.8605C25.2288 19.9498 25.3499 20 25.4762 20H44.5238C44.6501 20 44.7712 19.9498 44.8605 19.8605C44.9498 19.7712 45 19.6501 45 19.5238V0.47619C45 0.349901 44.9498 0.228787 44.8605 0.139487C44.7712 0.0501866 44.6501 1.26271e-05 44.5238 0H25.4762ZM25.9524 0.952381H44.0476V19.0476H25.9524V0.952381ZM29.1992 2.38095C27.9398 2.38095 26.9048 3.40578 26.9048 4.66146C26.9048 7.13227 29.6542 8.31276 30.4111 8.9388L30.7143 9.18899L31.0175 8.9388C31.7743 8.31283 34.5238 7.13266 34.5238 4.66146C34.5238 3.40578 33.4887 2.38095 32.2294 2.38095C31.6288 2.38095 31.1246 2.66071 30.7143 3.03943C30.304 2.66071 29.7998 2.38095 29.1992 2.38095ZM35.4762 2.38095V3.33333H43.0952V2.38095H35.4762ZM29.1992 3.33333C29.6708 3.33333 30.0789 3.57164 30.319 3.93043L30.7143 4.52102L31.1096 3.93043C31.3497 3.57164 31.7577 3.33333 32.2294 3.33333C32.9776 3.33333 33.5714 3.92476 33.5714 4.66146C33.5714 6.26825 31.8242 7.1604 30.7143 7.98177C29.6045 7.16037 27.8571 6.26774 27.8571 4.66146C27.8571 3.92476 28.451 3.33333 29.1992 3.33333ZM35.4762 5.2381V6.19048H43.0952V5.2381H35.4762ZM35.4762 8.09524V9.04762H43.0952V8.09524H35.4762ZM26.9048 10.9524V11.9048H34.5238V10.9524H26.9048ZM35.4762 10.9524V11.9048H43.0952V10.9524H35.4762ZM26.9048 13.8095V14.7619H34.5238V13.8095H26.9048ZM35.4762 13.8095V14.7619H43.0952V13.8095H35.4762ZM26.9048 16.6667V17.619H34.5238V16.6667H26.9048ZM35.4762 16.6667V17.619H43.0952V16.6667H35.4762Z" fill="#B7BBC7"/>
</g>
<defs>
<clipPath id="clip0_346_274">
<rect width="20" height="20" fill="white" transform="translate(25)"/>
</clipPath>
</defs>
</svg>
