<svg width="70" height="20" viewBox="0 0 70 20" fill="none" xmlns="http://www.w3.org/2000/svg">
<path d="M25 2V19H45V2H25ZM26.4286 3.54545H43.5714V14.2912L39.7991 10.1861L39.2857 9.63068L36.0491 13.1321L31.942 8.64062L31.4286 8.08523L26.4286 13.4943V3.54545ZM40.7143 5.09091C39.9247 5.09091 39.2857 5.78214 39.2857 6.63636C39.2857 7.49059 39.9247 8.18182 40.7143 8.18182C41.5039 8.18182 42.1429 7.49059 42.1429 6.63636C42.1429 5.78214 41.5039 5.09091 40.7143 5.09091ZM31.4286 10.2827L37.9911 17.4545H26.4286V15.6918L31.4286 10.2827ZM39.2857 11.8281L43.5714 16.4645V17.4545H40.0223L37.0536 14.2187L39.2857 11.8281Z" fill="#B7BBC7"/>
</svg>
