<svg width="20" height="17" viewBox="0 0 20 17" fill="none" xmlns="http://www.w3.org/2000/svg">
<g id="icons8-picture (2) 1" clip-path="url(#clip0_74_572)">
<path id="Vector" d="M0 0V17H20V0H0ZM1.42857 1.54545H18.5714V12.2912L14.7991 8.18608L14.2857 7.63068L11.0491 11.1321L6.94196 6.64062L6.42857 6.08523L1.42857 11.4943V1.54545ZM15.7143 3.09091C14.9247 3.09091 14.2857 3.78214 14.2857 4.63636C14.2857 5.49059 14.9247 6.18182 15.7143 6.18182C16.5039 6.18182 17.1429 5.49059 17.1429 4.63636C17.1429 3.78214 16.5039 3.09091 15.7143 3.09091ZM6.42857 8.28267L12.9911 15.4545H1.42857V13.6918L6.42857 8.28267ZM14.2857 9.82812L18.5714 14.4645V15.4545H15.0223L12.0536 12.2188L14.2857 9.82812Z" fill="#B7BBC7"/>
</g>
<defs>
<clipPath id="clip0_74_572">
<rect width="20" height="17" fill="white"/>
</clipPath>
</defs>
</svg>
