<svg width="70" height="20" viewBox="0 0 70 20" fill="none" xmlns="http://www.w3.org/2000/svg">
<path d="M34.9707 10.7038C37.9326 10.7038 40.3079 8.29912 40.3079 5.36657C40.3079 2.43402 37.9326 0 34.9707 0C32.0088 0 29.6334 2.40469 29.6334 5.33724C29.6334 8.2698 32.0088 10.7038 34.9707 10.7038ZM34.9707 1.40762C37.1408 1.40762 38.9003 3.16716 38.9003 5.33724C38.9003 7.50733 37.1408 9.26686 34.9707 9.26686C32.8006 9.26686 31.0411 7.53666 31.0411 5.36657C31.0411 3.19648 32.8006 1.40762 34.9707 1.40762ZM25.7038 19.0616H44.2962C44.6774 19.0616 45 18.739 45 18.3578C45 14.6628 41.9795 11.6422 38.2845 11.6422H31.7155C28.0205 11.6422 25 14.6628 25 18.3578C25 18.739 25.3226 19.0616 25.7038 19.0616ZM31.7155 13.0499H38.2845C40.9824 13.0499 43.1818 15.044 43.5337 17.654H26.4663C26.8182 15.044 29.0176 13.0499 31.7155 13.0499Z" fill="#B7BBC7"/>
</svg>
