<svg width="20" height="19" viewBox="0 0 20 19" fill="none" xmlns="http://www.w3.org/2000/svg">
<g id="user 1" clip-path="url(#clip0_6_97)">
<path id="Vector" d="M9.97168 10.4174C12.8288 10.4174 15.1202 8.0977 15.1202 5.26884C15.1202 2.43999 12.8288 0.092041 9.97168 0.092041C7.11454 0.092041 4.82317 2.4117 4.82317 5.24056C4.82317 8.06941 7.11454 10.4174 9.97168 10.4174ZM9.97168 1.44989C12.065 1.44989 13.7623 3.1472 13.7623 5.24056C13.7623 7.33391 12.065 9.03122 9.97168 9.03122C7.87833 9.03122 6.18102 7.3622 6.18102 5.26884C6.18102 3.17549 7.87833 1.44989 9.97168 1.44989ZM1.0325 18.4796H18.9674C19.3352 18.4796 19.6464 18.1684 19.6464 17.8007C19.6464 14.2363 16.7326 11.3226 13.1683 11.3226H6.83165C3.2673 11.3226 0.353577 14.2363 0.353577 17.8007C0.353577 18.1684 0.664751 18.4796 1.0325 18.4796ZM6.83165 12.6804H13.1683C15.7708 12.6804 17.8925 14.6041 18.2319 17.1217H1.768C2.10747 14.6041 4.22911 12.6804 6.83165 12.6804Z" fill="#B7BBC7"/>
</g>
<defs>
<clipPath id="clip0_6_97">
<rect width="20" height="18.5714" fill="white"/>
</clipPath>
</defs>
</svg>
